<?xml version="1.0" encoding="utf-8"?>
<!-- Generator: Adobe Illustrator 24.3.0, SVG Export Plug-In . SVG Version: 6.00 Build 0)  -->
<svg version="1.1" id="Layer_1" xmlns="http://www.w3.org/2000/svg" xmlns:xlink="http://www.w3.org/1999/xlink" x="0px" y="0px"
	 viewBox="0 0 750 500" style="enable-background:new 0 0 750 500;" xml:space="preserve">
<style type="text/css">
	.st0{fill:#263238;}
	.st1{fill:#455A64;}
	.st2{opacity:0.3;}
	.st3{fill:#92E3A9;}
	.st4{fill:#FAFAFA;}
	.st5{fill:#EBEBEB;}
	.st6{fill:#E0E0E0;}
	.st7{fill:#FFFFFF;}
	.st8{fill:#FFBF9D;}
	.st9{fill:#FF9A6C;}
	.st10{opacity:0.6;}
	.st11{opacity:0.2;}
	.st12{fill:none;}
</style>
<g id="freepik--Floor--inject-4">
	<path class="st0" d="M722.6,475.4c0,0.1-155.6,0.3-347.6,0.3s-347.6-0.1-347.6-0.3s155.6-0.3,347.6-0.3S722.6,475.3,722.6,475.4z"
		/>
</g>
<g id="freepik--Plant--inject-4">
	<path class="st1" d="M123.6,303.3c-9,4.6-15.8,12.6-20.8,21.5s-8.1,18.5-11.3,28.1l-2.8,49.5c10.4-17.8,18.8-38.6,21.1-59.1l-7-0.6
		c4.7-0.7,8.6-4.1,11-8.1s3.8-8.6,5-13.2l-8.5,1.3C117.1,318.1,121.9,311.2,123.6,303.3z"/>
	<g class="st2">
		<path d="M123.6,303.3c-9,4.6-15.8,12.6-20.8,21.5s-8.1,18.5-11.3,28.1l-2.8,49.5c10.4-17.8,18.8-38.6,21.1-59.1l-7-0.6
			c4.7-0.7,8.6-4.1,11-8.1s3.8-8.6,5-13.2l-8.5,1.3C117.1,318.1,121.9,311.2,123.6,303.3z"/>
	</g>
	<path class="st1" d="M87.2,413.9c0,0-22.7-27.1-22.4-53H74c0,0-9.9-6.5-9.2-10.2s1-17.5,1-17.5l8.4,2.1c0,0-6.3-3.1-7.1-8.1
		s1.8-28,1.8-28s10.2,10.7,13.3,21.7s11.4,23.8,9,57.2S87.2,413.9,87.2,413.9z"/>
	<path class="st1" d="M98.7,416.5c0,0,24.5-16.4,30-37.2l-7.3-2c0,0,9.4-3.1,9.6-6.2s3-14.3,3-14.3l-7.2-0.1c0,0,5.7-1.1,7.4-5
		s4.6-22.9,4.6-22.9s-10.5,6.4-15.5,14.5s-14.4,16.7-19.7,44.1S98.7,416.5,98.7,416.5z"/>
	<path class="st0" d="M75.2,322.9c0,0,0,0.1,0.1,0.3l0.2,0.8l0.7,3.2c0.3,1.4,0.7,3.1,1.1,5.1s0.9,4.3,1.3,6.8c1,5,2,11,3,17.7
		s2.1,14.1,3,21.8s1.6,15.2,2.1,21.9s0.9,12.8,1.1,18c0.1,2.6,0.2,4.9,0.2,6.9s0.1,3.8,0.1,5.2s0,2.5,0,3.3v0.9c0,0.1,0,0.2,0,0.3
		c0-0.1,0-0.2,0-0.3c0-0.2,0-0.5,0-0.9c0-0.8-0.1-1.9-0.1-3.3s-0.1-3.2-0.2-5.2s-0.2-4.4-0.3-6.9c-0.2-5.1-0.7-11.2-1.2-17.9
		s-1.4-14.2-2.2-22s-1.9-15.1-2.9-21.8s-2-12.7-2.9-17.7c-0.4-2.5-0.9-4.8-1.3-6.8s-0.7-3.7-1-5.1s-0.5-2.5-0.6-3.2l-0.2-0.8
		C75.2,323,75.2,322.9,75.2,322.9z"/>
	<path class="st1" d="M84.1,430.5c0,0-20.7-23.5-27.2-37.7l4.9-2.1c-3.5,0.6-7.1-0.9-9.9-3.2c-2.6-2.4-4.9-5.2-6.7-8.3l6.4-1.1
		c-5.9-1.7-10.9-5.6-14-10.8c7.6,1.2,14.4,5.4,20,10.6c4.5,4.3,8.5,9,12.1,14c1.8,2.4,3.4,5,4.7,7.8C78,406.8,84.1,421.9,84.1,430.5
		z"/>
	<path class="st0" d="M129,342.4c0,0.1,0,0.2-0.1,0.2l-0.3,0.7c-0.3,0.6-0.7,1.5-1.2,2.6c-1.1,2.3-2.7,5.5-4.6,9.6
		c-3.8,8.2-8.8,19.5-13.8,32.3s-8.9,24.6-11.6,33.2c-1.3,4.3-2.4,7.8-3.1,10.2c-0.3,1.2-0.6,2.1-0.8,2.8l-0.2,0.7
		c0,0.1-0.1,0.2-0.1,0.2c0-0.1,0-0.2,0-0.3l0.2-0.7c0.2-0.7,0.4-1.6,0.7-2.8c0.7-2.4,1.6-5.9,2.9-10.3c2.6-8.6,6.5-20.5,11.4-33.3
		s10-24.2,13.9-32.3c2-4.1,3.6-7.3,4.7-9.5c0.6-1.1,1-2,1.3-2.6l0.4-0.7C129,342.5,129,342.4,129,342.4z"/>
	<path class="st0" d="M85.8,440.6c-0.1-0.6-0.2-1.1-0.3-1.7c-0.2-1.1-0.4-2.6-0.8-4.6c-1-5-2.4-9.9-4.2-14.7
		c-1.8-4.8-4-9.4-6.5-13.8c-1-1.7-1.8-3-2.4-4c-0.3-0.5-0.6-1-0.9-1.5c0.4,0.4,0.7,0.9,1,1.4c0.7,0.9,1.5,2.2,2.6,3.9
		c2.7,4.4,4.9,9,6.7,13.8c1.8,4.8,3.2,9.8,4.1,14.8c0.3,1.9,0.6,3.5,0.7,4.6C85.8,439.4,85.9,440,85.8,440.6z"/>
	<rect x="67.8" y="435" class="st3" width="45.4" height="9.2"/>
	<polygon class="st3" points="72.2,444.3 77.1,475.4 104.5,475.4 109.1,444.3 	"/>
	<path class="st0" d="M110.4,444.3c0,0.1-8.6,0.3-19.2,0.3s-19.2-0.1-19.2-0.3s8.6-0.3,19.2-0.3S110.4,444.2,110.4,444.3z"/>
</g>
<g id="freepik--Shelves--inject-4">
	<rect x="440.7" y="222.3" class="st3" width="81.7" height="63"/>
	<rect x="447.6" y="270.9" class="st4" width="6.3" height="7.1"/>
	<rect x="488.2" y="222.4" class="st5" width="9.3" height="13.4"/>
	<rect x="488.2" y="271.6" class="st5" width="9.3" height="13.4"/>
	<path class="st0" d="M461.1,285.7c-0.1,0-0.3-13.9-0.3-30.9s0.1-30.9,0.3-30.9s0.3,13.9,0.3,30.9S461.2,285.7,461.1,285.7z"/>
	<rect x="375.7" y="50" class="st0" width="4" height="214.6"/>
	<rect x="214.8" y="50" class="st0" width="4" height="220.9"/>
	<rect x="531.3" y="50" class="st0" width="4" height="229.3"/>
	<rect x="215.9" y="49.9" class="st0" width="316" height="4"/>
	<rect x="217.7" y="125.9" class="st0" width="316" height="4"/>
	<rect x="215.8" y="201.8" class="st0" width="316" height="4"/>
	<rect x="219.4" y="86.1" class="st3" width="5.1" height="39.8"/>
	
		<rect x="226.8" y="86.1" transform="matrix(0.9919 -0.1269 0.1269 0.9919 -11.5936 29.955)" class="st3" width="5.1" height="39.8"/>
	<rect x="234.4" y="122" class="st3" width="39.8" height="3.9"/>
	<rect x="238.4" y="114.2" class="st3" width="39.8" height="3.9"/>
	<rect x="242.2" y="110.2" class="st6" width="39.8" height="3.9"/>
	<rect x="234.4" y="118.1" class="st1" width="55.5" height="3.9"/>
	<rect x="293.1" y="138.8" class="st1" width="81.7" height="63"/>
	<rect x="300" y="187.4" class="st4" width="6.3" height="7.1"/>
	<rect x="340.5" y="138.9" class="st5" width="9.3" height="13.4"/>
	<rect x="340.5" y="188.1" class="st5" width="9.3" height="13.4"/>
	<path class="st0" d="M313.4,202.2c-0.1,0-0.3-13.9-0.3-30.9s0.1-30.9,0.3-30.9s0.3,13.9,0.3,30.9S313.6,202.2,313.4,202.2z"/>
	<rect x="383.7" y="62.7" class="st1" width="81.7" height="63"/>
	<rect x="390.6" y="111.4" class="st4" width="6.3" height="7.1"/>
	<rect x="431.2" y="62.8" class="st5" width="9.3" height="13.4"/>
	<rect x="431.2" y="112.1" class="st5" width="9.3" height="13.4"/>
	<path class="st0" d="M404.1,126.1c-0.1,0-0.3-13.8-0.3-30.9s0.1-31,0.3-31s0.3,13.8,0.3,31S404.2,126.1,404.1,126.1z"/>
	<rect x="468.8" y="62.7" class="st3" width="59" height="63"/>
	<rect x="475.9" y="115.4" class="st4" width="6.3" height="7.1"/>
	<rect x="501.6" y="62.8" class="st5" width="9.3" height="13.4"/>
	<rect x="501.6" y="112.1" class="st5" width="9.3" height="13.4"/>
	<path class="st0" d="M488.9,125.9c-0.1,0-0.3-13.9-0.3-30.9s0.1-31,0.3-31s0.3,13.8,0.3,30.9S489,125.9,488.9,125.9z"/>
	<rect x="386.2" y="165.1" class="st3" width="47.6" height="36.7"/>
	<rect x="390.3" y="193.4" class="st4" width="3.6" height="4.1"/>
	<rect x="413.9" y="165.2" class="st5" width="5.4" height="7.8"/>
	<rect x="413.9" y="193.9" class="st5" width="5.4" height="7.8"/>
	<path class="st0" d="M398.1,202.1c-0.1,0-0.3-8.1-0.3-18s0.1-18.1,0.3-18.1s0.3,8.1,0.3,18.1S398.3,202.1,398.1,202.1z"/>
	<rect x="479.3" y="165.1" class="st3" width="47.6" height="36.7"/>
	<rect x="483.4" y="193.4" class="st4" width="3.6" height="4.1"/>
	<rect x="507" y="165.2" class="st5" width="5.4" height="7.8"/>
	<rect x="507" y="193.9" class="st5" width="5.4" height="7.8"/>
	<path class="st0" d="M491.2,202.1c-0.1,0-0.3-8.1-0.3-18s0.1-18.1,0.3-18.1s0.3,8.1,0.3,18.1S491.4,202.1,491.2,202.1z"/>
	<rect x="289.9" y="102.7" class="st3" width="85.8" height="22.8"/>
	<path class="st0" d="M312.7,125.8c-0.1,0-0.3-5.1-0.3-11.5s0.1-11.5,0.3-11.5s0.3,5.1,0.3,11.5S312.9,125.8,312.7,125.8z"/>
	<rect x="340.1" y="102.7" class="st5" width="8.4" height="11.2"/>
	<rect x="219.7" y="183.6" class="st1" width="69.1" height="18.3"/>
	<path class="st0" d="M238.1,202.4c-0.3-3.1-0.3-6.2-0.3-9.2c-0.1-3.1,0-6.2,0.3-9.2c0.3,3.1,0.3,6.2,0.3,9.2
		C238.4,196.2,238.4,199.3,238.1,202.4z"/>
	<rect x="260.1" y="183.7" class="st5" width="6.8" height="9"/>
	<rect x="226.9" y="167.4" class="st3" width="60.9" height="16.2"/>
	<path class="st0" d="M243.1,183.9c-0.3-2.7-0.4-5.4-0.3-8.1c-0.1-2.7,0-5.4,0.3-8.1c0.3,2.7,0.3,5.4,0.3,8.1
		C243.5,178.4,243.4,181.2,243.1,183.9z"/>
	<rect x="262.5" y="167.4" class="st5" width="6" height="7.9"/>
	<rect x="388.9" y="148.9" class="st1" width="60.9" height="16.2"/>
	<path class="st0" d="M405.1,165.4c-0.3-2.7-0.3-5.4-0.3-8.1c-0.1-2.7,0-5.4,0.3-8.1c0.3,2.7,0.4,5.4,0.3,8.1
		C405.4,159.9,405.3,162.7,405.1,165.4z"/>
	<rect x="424.5" y="148.9" class="st5" width="6" height="7.9"/>
	<rect x="244.2" y="88.3" class="st3" width="31.3" height="21.8"/>
	<path class="st0" d="M259.9,110.1c-0.1,0-0.3-4.9-0.3-10.8s0.1-10.8,0.3-10.8s0.3,4.9,0.3,10.8S260,110.1,259.9,110.1z"/>
	<path class="st5" d="M264.8,88.3c0.1,0,0,7,0,7h7.8v-7H264.8z"/>
	<rect x="440.7" y="179.9" class="st3" width="31.3" height="21.8"/>
	<path class="st0" d="M456.4,201.6c-0.1,0-0.3-4.9-0.3-10.9s0.1-10.9,0.3-10.9s0.3,4.9,0.3,10.9S456.5,201.6,456.4,201.6z"/>
	<path class="st5" d="M461.3,179.9c0.1,0,0,7,0,7h7.8v-7H461.3z"/>
	<rect x="318.9" y="65.4" class="st1" width="47.9" height="36.9"/>
	<rect x="323" y="94" class="st4" width="3.7" height="4.2"/>
	<rect x="346.7" y="65.5" class="st5" width="5.4" height="7.9"/>
	<rect x="346.7" y="94.4" class="st5" width="5.4" height="7.9"/>
	<path class="st0" d="M330.9,102.6c-0.1,0-0.3-8.1-0.3-18.1s0.1-18.1,0.3-18.1s0.3,8.1,0.3,18.1S331,102.6,330.9,102.6z"/>
</g>
<g id="freepik--speech-bubble--inject-4">
	<path class="st7" d="M317.9,116.4c0,5-1.1,8.3-3.8,12.8c-0.4,0.8,2.2,8,2.2,8l-7.8-2.7c-3.5,2.6-7.1,3.2-11.9,3.2
		c-11.7,0-21.2-9.5-21.2-21.2s9.5-21.2,21.2-21.2S317.9,104.7,317.9,116.4L317.9,116.4L317.9,116.4z"/>
	<path class="st0" d="M296.6,95.2c-0.1,0-0.2,0-0.4,0h-1.1c-0.2,0-0.5,0-0.8,0l-1,0.1l-1.1,0.2l-1.2,0.3c-2.1,0.6-4.1,1.5-6,2.7
		c-5.6,3.5-9.2,9.5-9.8,16.1c-0.1,1-0.1,2-0.1,2.9c0,0.5,0,1,0.1,1.5s0.1,1,0.2,1.5c0.4,2.1,1,4.1,2,6c1,2,2.3,3.8,3.9,5.4
		c1.7,1.6,3.5,3,5.6,4c2.1,1.1,4.5,1.8,6.9,2.1c0.6,0.1,1.2,0.1,1.8,0.2c0.6,0,1.2,0,1.9,0c1.2,0,2.5-0.2,3.7-0.5
		c2.6-0.6,5.1-1.6,7.4-3.1h-0.2l7.5,3l0.4,0.2l-0.1-0.5c-0.8-2.8-1.5-5.4-2.2-8v0.2c2-2.7,3.4-5.8,4-9.2c0.3-1.5,0.4-3.1,0.3-4.7
		c0-0.8-0.1-1.5-0.2-2.2c0-0.4-0.1-0.7-0.2-1.1s-0.2-0.7-0.3-1.1c-1.3-4.9-4.2-9.3-8.4-12.2c-1.5-1.1-3.2-2-5-2.6l-1.1-0.4l-1.1-0.2
		l-1-0.2c-0.3-0.1-0.6-0.1-0.9-0.1c-0.6-0.1-1.1-0.2-1.5-0.2h-1.1L296.6,95.2l0.2,0l0.7,0.1l1.1,0.1c0.4,0,0.9,0.2,1.5,0.2
		c8.3,1.4,15,7.6,17,15.8c0.1,0.3,0.2,0.7,0.2,1s0.1,0.7,0.2,1.1c0.1,0.7,0.2,1.5,0.2,2.2c0.1,1.5,0,3.1-0.3,4.6
		c-0.6,3.3-1.9,6.3-3.9,8.9l-0.1,0.1v0.1c0.7,2.6,1.4,5.3,2.2,8l0.3-0.3l-7.5-3l-0.1-0.1l-0.1,0.1c-2.2,1.4-4.6,2.5-7.2,3
		c-1.2,0.3-2.4,0.4-3.6,0.5c-0.6,0-1.2,0-1.8,0c-0.6,0-1.2-0.1-1.8-0.1c-2.3-0.3-4.6-1-6.7-2.1c-2-1-3.9-2.3-5.5-3.9
		c-1.5-1.6-2.8-3.3-3.8-5.2c-0.9-1.8-1.6-3.8-2-5.8c-0.1-0.5-0.1-1-0.2-1.5s-0.1-1-0.1-1.5c-0.1-1-0.1-1.9,0-2.9
		c0.6-6.5,4.1-12.3,9.6-15.9c1.8-1.2,3.9-2.1,6-2.7l1.2-0.3l1.1-0.2l1-0.2c0.3,0,0.6,0,0.8-0.1l1.1-0.1L296.6,95.2z"/>
	<polygon class="st3" points="285.4,117.6 288.4,114.7 294,119.7 305.1,109.1 307.8,112 293.6,125.4 	"/>
	<path class="st0" d="M293.6,125.4L293.6,125.4l-8.2-7.7l0,0l2.9-2.9l5.6,5l11.1-10.7l0,0l2.7,2.9l0,0L293.6,125.4z"/>
</g>
<g id="freepik--character-2--inject-4">
	<polygon class="st8" points="415.5,202.4 428.4,212.5 419.5,218.9 410.6,210.6 	"/>
	<path class="st0" d="M374.7,207.7c0,0,6,6.8,8.5,9.8c1.1,1.4,2.8,2.2,4.6,2.1c0.7,0,1.5-0.3,2-0.7c0.3-0.3,0.5-0.6,0.5-1
		c0.5-1.8,0.1-3.7-1.2-5l-7.1-7.6L374.7,207.7z"/>
	<path class="st0" d="M373.7,123.2c4.8,0.1,9,7.3,8.2,11.3c-0.4,2-1.2,4.2,0.4,5.7s4.9,1.3,6.4,2.8c1.1,1.2,1.7,2.8,1.7,4.4
		c-0.2,2.5,0.2,5.8,2.2,6.6l-9.8,3.5c-1-1-1.4-2.6-2.4-3.6c1.2,1.1,2.3,4.9-3,5.3l-3.3-2.9c-8.9,2.3-18.2,5.1-25.4,1.3"/>
	<path class="st0" d="M328.3,144.7c0.6-1.9,1.7-3.6,2.1-5.5c1-4.1-1-8.8,1.1-12.4c1.5-2.6,4.5-3.8,7.4-4.7s5.6-1.3,7.8-3.4
		c1.6-1.5,2.5-3.6,4.1-5.2c2.3-2.2,5.6-2.8,8.7-3c3.2-0.3,6.5,0.3,9.4,1.7c2.9,1.4,5.1,4.1,5.7,7.4c0.2,1.6,0,3.2,0.5,4.7
		s1.8,3,2.5,4.5c1.6,3.4,0.7,7.5-2.2,9.9l-22.6,28.1c-4.7,1.7-9.8-4.2-13.3-7.7S326.7,149.4,328.3,144.7z"/>
	<path class="st8" d="M374.9,135c-0.8-6.5-5.6-14.2-12-13.2l-20,6.3c-1.8,0.3-3.1,2-2.9,3.8c0,0,0,0,0,0.1l4.4,48.4
		c0,0,0.2,0.5,0.2,0.5s5.4,13.5,18.5,8.5c2.6-1,3.8-0.1,4.1-3.1l0,0c0.6-0.2,0,0,0-0.4c0-3.7-0.3-11.2-0.3-11.2l0,0
		c-0.2-4-0.3-5.6-0.3-5.5s8.2-1.9,9.3-12.8C376.6,151.1,375.8,142.2,374.9,135z"/>
	<path class="st0" d="M357.9,145.6c0,0.8-0.5,1.4-1.3,1.5c-0.7,0.1-1.4-0.4-1.5-1.1c0,0,0,0,0,0c-0.1-0.8,0.5-1.4,1.3-1.5
		C357.2,144.4,357.8,144.9,357.9,145.6C357.9,145.6,357.9,145.6,357.9,145.6z"/>
	<path class="st0" d="M371.8,144.9c0.1,0.8-0.5,1.4-1.3,1.5c-0.7,0.1-1.4-0.4-1.5-1.1c0,0,0,0,0-0.1c-0.1-0.8,0.5-1.4,1.2-1.5
		C371,143.7,371.7,144.2,371.8,144.9C371.8,144.9,371.8,144.9,371.8,144.9z"/>
	<path class="st0" d="M373.6,140c-0.2,0.2-1.4-0.6-3.1-0.4s-2.7,1.3-2.9,1.1s0-0.5,0.5-1c1.2-1.3,3.2-1.6,4.8-0.6
		C373.5,139.5,373.7,139.9,373.6,140z"/>
	<path class="st0" d="M358.8,141.4c-0.2,0.2-1.5-0.7-3.2-0.7s-3,1-3.2,0.8s0.1-0.5,0.6-1c0.7-0.6,1.6-0.9,2.5-0.9
		c0.9,0,1.8,0.3,2.5,0.8C358.7,140.9,358.9,141.3,358.8,141.4z"/>
	<path class="st0" d="M364.7,151.7c0.8-0.3,1.6-0.5,2.4-0.6c0.4-0.1,0.7-0.2,0.8-0.4c0-0.4-0.1-0.8-0.3-1.1
		c-0.4-0.9-0.8-1.9-1.3-2.8c-1.8-4.1-3.1-7.4-3-7.5s1.8,3.1,3.6,7.2c0.4,1,0.9,2,1.2,2.9c0.3,0.4,0.4,1,0.3,1.5
		c-0.1,0.3-0.3,0.5-0.6,0.6c-0.2,0.1-0.4,0.1-0.6,0.1C366.3,151.7,365.5,151.7,364.7,151.7z"/>
	<path class="st9" d="M366.7,169.3c-5.1,0.4-10.2-0.7-14.8-3c0,0,4.1,7.7,14.9,6.1L366.7,169.3z"/>
	<path class="st3" d="M364.2,155.3c-0.6-0.7-1.6-1-2.5-0.9c-0.7,0.1-1.3,0.5-1.6,1c-0.4,0.5-0.4,1.3,0,1.8c0.5,0.5,1.3,0.7,2,0.4
		c0.7-0.3,1.3-0.7,1.8-1.2c0.2-0.1,0.3-0.3,0.4-0.5c0.1-0.2,0.1-0.4,0-0.6"/>
	<path class="st0" d="M360.3,153c0.2,0,0.3,1.6,1.8,2.7s3.2,0.8,3.2,1s-0.4,0.3-1.1,0.4c-1,0.1-1.9-0.2-2.7-0.8
		c-0.7-0.5-1.2-1.3-1.4-2.2C360,153.4,360.2,153,360.3,153z"/>
	<path class="st0" d="M358.8,136.3c-0.1,0.4-1.6,0.3-3.4,0.6s-3.1,0.9-3.4,0.5c-0.1-0.2,0.1-0.6,0.7-1c1.5-1.1,3.4-1.4,5.1-0.9
		C358.5,135.8,358.8,136.1,358.8,136.3z"/>
	<path class="st0" d="M373.2,134.6c-0.3,0.4-1.5,0.1-2.9,0.1s-2.6,0.4-2.9,0c-0.1-0.2,0-0.5,0.5-0.9c0.7-0.4,1.5-0.7,2.3-0.7
		c0.8,0,1.6,0.1,2.4,0.5C373.1,134.1,373.3,134.4,373.2,134.6z"/>
	<path class="st0" d="M321.9,142.6c1-1.9-1-4,0.6-5.8c1.4-1.6,5.2-1.6,6.6-3.3c0.8-0.7,1.2-1.7,1.1-2.8c0-1.5,0.7-7.8,9.9-9l1.3,5.7
		c0.6-0.3,1.2-0.5,1.8-0.7c7.4-2.7,15.2-4.5,23.1-5.4c1,1.6,0,3.8-1.5,5s-3.4,1.6-5.2,2.2c-1.8,0.6-3.6,1.6-4.4,3.3s-0.2,4-0.9,5.9
		c-1.2,3.2-5.8,4.2-7,7.4c-0.9,2.4,0.5,5.1,0.8,7.7c0.3,3-0.8,6-3,8c-1.7,1.6-4.6,4.4-4.9,3.9l-24.5-15.3
		C314.4,146,320.5,145.2,321.9,142.6z"/>
	<path class="st1" d="M327.2,156.3c0,0,0-0.1-0.1-0.2c-0.1-0.2-0.1-0.3-0.2-0.5c-0.2-0.7-0.2-1.3-0.1-2c0.2-1,0.7-2,1.5-2.7
		c0.5-0.4,1.1-0.8,1.7-0.9c0.7-0.2,1.4-0.2,2.2-0.5c0.8-0.3,1.5-0.9,1.8-1.7c0.3-0.9,0.4-1.8,0.3-2.6c-0.1-0.9-0.1-1.9,0-2.8
		c0.1-0.5,0.2-0.9,0.5-1.4c0.3-0.4,0.6-0.8,1-1.1c0.9-0.5,1.9-0.8,2.9-1c1.1-0.2,2.1-0.6,3.1-1.1c0.5-0.3,0.9-0.8,1.2-1.3
		c0.3-0.5,0.5-1.1,0.6-1.6c0.2-1.1,0.2-2.3,0.4-3.5c0.4-2.3,2-4.2,4.2-5c1-0.3,2.1-0.5,3.2-0.5c0.5,0,1.1-0.1,1.6-0.3
		c0.5-0.2,1-0.4,1.4-0.8c0.6-0.8,1.1-1.7,1.4-2.7c0.3-0.9,0.8-1.7,1.4-2.4c1.1-1.3,2.7-2,4.4-2.2c1.4-0.1,2.8,0.2,4,0.9
		c0.9,0.5,1.7,1.3,2.3,2.1c0.4,0.5,0.7,1.1,0.9,1.8c0.1,0.2,0.1,0.4,0.1,0.5s0,0.2,0,0.2c0-0.2-0.1-0.5-0.1-0.7
		c-0.2-0.6-0.5-1.3-0.9-1.8c-0.6-0.9-1.4-1.6-2.3-2.2c-1.2-0.7-2.7-1.1-4.1-0.9c-1.7,0.2-3.3,1-4.5,2.3c-0.7,0.7-1.2,1.5-1.5,2.5
		c-0.2,1-0.7,1.9-1.3,2.6c-0.8,0.7-1.8,1-2.8,1c-1.1,0-2.2,0.2-3.3,0.6c-2.2,0.9-3.9,2.8-4.4,5.2c-0.2,1.2-0.2,2.4-0.4,3.5
		c-0.1,0.6-0.3,1.1-0.5,1.6c-0.3,0.5-0.7,0.9-1.1,1.2c-1.9,1.2-4.2,1.1-6,2.2c-0.4,0.3-0.8,0.7-1.1,1.1c-0.3,0.4-0.4,0.9-0.5,1.4
		c-0.1,1-0.1,1.9,0,2.9c0.1,0.9,0,1.7-0.3,2.6c-0.1,0.4-0.4,0.7-0.7,1c-0.3,0.3-0.6,0.5-1,0.6c-0.7,0.3-1.5,0.3-2.2,0.5
		c-0.6,0.2-1.2,0.5-1.7,1c-0.8,0.7-1.3,1.7-1.5,2.8c-0.1,0.7-0.1,1.4,0.1,2c0.1,0.2,0.1,0.3,0.2,0.5L327.2,156.3z"/>
	<path class="st8" d="M312.2,212.5c-0.1,1.3-10.2,32.5-8,42.6c1,4.3,13.4,14.3,13.4,14.3l4,2.7c0.9-4.2,2.6-7.2,2.4-10.6
		c0,0-0.8-0.2-2-5.1c-0.7-2.9-2-5.6-3.8-8l5.8-30.4L312.2,212.5z"/>
	<path class="st6" d="M331.4,181.5l12.2-4.7l0,0c2.2,4.4,6.6,7.2,11.5,7.2c5.1-0.1,9.8-3,12.2-7.5l0.8,0.3l14.7,2.2l3.7,22.3
		l-4,49.6l3.1,5.8l1.1,6.2l-56.9-2.4l-0.7-3.6c-0.2-1.3,0-2.7,0.7-3.8l1.2-2.2l-5.8-67.1L331.4,181.5z"/>
	<path class="st6" d="M326.4,184.2l-1.1-0.4c0,0-7.7,3.8-11.8,17.3s-6.5,22.3-6.5,22.3l19.1,4.2l4.6-23.8L326.4,184.2z"/>
	<path class="st0" d="M326.3,194.1c0.1,0.3,0.1,0.7,0.1,1c0,0.8,0.1,1.7,0.2,2.8c0.2,2.5,0.4,5.7,0.7,9.2s0.6,6.8,0.8,9.2
		c0.1,1.1,0.2,2,0.2,2.8c0,0.3,0,0.7,0,1c-0.1-0.3-0.2-0.7-0.2-1c-0.1-0.7-0.2-1.6-0.4-2.8c-0.3-2.4-0.6-5.6-0.9-9.2
		s-0.5-6.9-0.5-9.2c0-1.2-0.1-2.1-0.1-2.8C326.2,194.8,326.2,194.5,326.3,194.1z"/>
	<path class="st9" d="M318.4,248.6c-0.5,0-1-0.1-1.5-0.2c-2.4-0.3-4.7,0.4-6.5,2c-0.7,0.6-1,1-1.1,1c0.2-0.5,0.5-0.9,0.9-1.2
		c1.8-1.8,4.3-2.5,6.8-2.1C317.4,248.1,317.9,248.3,318.4,248.6z"/>
	<path class="st8" d="M394.9,465.2c-0.3-0.5-2.9-11.6-2.9-11.6l17.4-4.7l2.1,16L394.9,465.2z"/>
	<path class="st3" d="M411.5,461.8v1.2c0,0,18.8,8.9,19,13l-37.6-0.6l0.7-14.3C399.1,464.2,405,464.6,411.5,461.8z"/>
	<g class="st10">
		<path class="st7" d="M397.3,465.8c-0.8,0.3-1.3,1.2-1.1,2c0.1,0.8,0.9,1.4,1.7,1.2c0,0,0.1,0,0.1,0c0.8-0.3,1.3-1.2,1.1-2.1
			C398.9,466.1,397.9,465.4,397.3,465.8"/>
	</g>
	<g class="st10">
		<path class="st7" d="M392.9,475.4l0.2-3.4l35.9,1.8c0,0,1.7,0.9,1.5,2.2L392.9,475.4z"/>
	</g>
	<path class="st0" d="M411.6,463.2c0,0.2-0.9,0.3-1.8,1s-1.4,1.5-1.6,1.5s0.1-1.3,1.2-2.1S411.6,463,411.6,463.2z"/>
	<path class="st0" d="M415.5,465.1c0,0.2-0.8,0.5-1.4,1.4s-0.8,1.8-1,1.8s-0.3-1.2,0.5-2.3S415.5,464.9,415.5,465.1z"/>
	<path class="st0" d="M417.6,470.5c-0.2,0-0.4-1,0.1-2.1s1.4-1.6,1.4-1.4s-0.5,0.8-0.9,1.7S417.8,470.5,417.6,470.5z"/>
	<path class="st8" d="M360.1,465.2c0.3-0.5-0.4-16.6-0.4-16.6l-17.4-4.7l1.1,20.9L360.1,465.2z"/>
	<path class="st3" d="M343.6,461.8v1.2c0,0-18.8,8.9-19,13l37.6-0.6l-0.7-14.3C355.9,464.2,350.1,464.6,343.6,461.8z"/>
	<g class="st10">
		<path class="st7" d="M357.7,465.8c0.8,0.3,1.2,1.2,1.1,2c-0.1,0.8-0.9,1.4-1.7,1.2c0,0,0,0,0,0c-0.8-0.3-1.3-1.2-1.1-2.1
			c0.2-0.8,1.2-1.5,1.9-1.1"/>
	</g>
	<g class="st10">
		<path class="st7" d="M362.2,475.4L362,472l-35.9,1.8c0,0-1.7,0.9-1.5,2.2L362.2,475.4z"/>
	</g>
	<path class="st0" d="M343.5,463.2c0,0.2,0.9,0.3,1.8,1s1.4,1.5,1.6,1.5s-0.1-1.3-1.2-2.1S343.4,463,343.5,463.2z"/>
	<path class="st0" d="M339.5,465.1c0,0.2,0.8,0.5,1.4,1.4s0.8,1.8,1,1.8s0.3-1.2-0.5-2.3S339.5,464.9,339.5,465.1z"/>
	<path class="st0" d="M337.4,470.5c0.2,0,0.4-1-0.1-2.1s-1.4-1.6-1.4-1.4s0.5,0.8,0.9,1.7S337.2,470.5,337.4,470.5z"/>
	<path class="st0" d="M385.5,261.9c0.8,0.6,10.3,49.7,17.3,103.5c5.8,44.2,8.7,88.9,8.7,88.9l-18.7,3.5c0,0-16.4-55-24.9-94.5
		c-7.8-36.4-11.5-61.9-11.5-61.9l0.5-26.5L385.5,261.9z"/>
	<path class="st0" d="M330.7,261.5c-9.5,12.7-14.4,28.1-13.9,44c0.5,15.7,25.7,148.9,25.7,148.9l18.4-0.1l-2-145.7l2.6-34.3
		L330.7,261.5z"/>
	<path class="st1" d="M396.7,456.6c-0.5-0.8-0.9-1.6-1-2.6c-0.3-0.9-0.4-1.9-0.3-2.8c0.3,0.9,0.5,1.8,0.7,2.7
		C396.3,454.8,396.6,455.7,396.7,456.6z"/>
	<path class="st1" d="M403,455.4c0,0-0.1-0.1-0.1-0.2l0,0c-0.1-0.4-0.1-1.4-0.3-2.5c-0.2-0.9-0.4-1.9-0.5-2.8
		c0.5,0.8,0.8,1.7,0.9,2.7c0.1,0.9,0.1,1.8,0,2.6l0,0C403.1,455.3,403.1,455.4,403,455.4z"/>
	<path class="st1" d="M409.1,454.4c-0.1,0,0-1.4-0.3-3.2s-0.6-3-0.5-3.1c0.6,0.9,0.9,1.9,1,3C409.5,452.2,409.5,453.3,409.1,454.4z"
		/>
	<path class="st1" d="M357.6,454.6c-0.1,0,0.3-1.3,0.4-2.9s-0.1-2.9,0.1-2.9c0.4,0.9,0.5,1.9,0.4,2.9
		C358.4,452.7,358.2,453.7,357.6,454.6z"/>
	<path class="st1" d="M351.4,454.5c-0.4-1.9-0.5-3.8-0.2-5.7C351.5,450.7,351.6,452.6,351.4,454.5z"/>
	<path class="st1" d="M346.6,454.3c-0.5-0.8-0.8-1.8-0.9-2.7c-0.2-1-0.3-1.9-0.1-2.9c0.3,0.9,0.4,1.9,0.5,2.8
		C346.3,452.4,346.5,453.4,346.6,454.3z"/>
	<path class="st6" d="M381.9,179c0,0,4,0.2,14,7.4c8.5,6.2,19.7,16,19.7,16l-8.3,13.8l0,0l-25.3-18.1L381.9,179z"/>
	<path class="st8" d="M395,199.5c0,0,20.9,4.4,26.2,6.9s10.6,6.4,10.9,10s0.8,9.9-8.7,9.5s-12.3-4.9-18-8.2l-10.8-6.2L395,199.5z"/>
	<path class="st8" d="M379.5,197.8c-0.3,0.3-6.2,6.7-7.4,7.8c-0.8,0.7-1.3,1.7-1.1,2.8c0.1,0.7,0.2,1.4,0.5,2l0.2,0.4
		c-0.6,0.8-0.5,2,0.3,2.7c0.1,0.1,0.3,0.2,0.5,0.3c0.8,0.2,1.7,0.2,2.5-0.1c0.2,0.8,0.8,1.4,1.6,1.6c-0.2,0.4-0.2,0.9,0,1.3
		c0.4,0.8,0.8,1,1.9,1.2s6.9-2.1,6.9-2.1c1.7,0,3.4-0.3,5-0.7c1.8-0.7,3.4-1.8,4.7-3.3l3.3-4.8l-3-7.3c0,0-13.5-2.8-14-2.5
		C380.7,197.3,380.1,197.5,379.5,197.8z"/>
	<path class="st9" d="M380.2,203.2c-1.3,1.4-2.7,2.7-4.2,3.9c-1.2,1-2.3,1.9-3.1,2.6c-0.4,0.4-0.8,0.7-1.3,1.1
		c0.3-0.5,0.7-0.9,1.1-1.3c0.7-0.7,1.8-1.7,3-2.7C377.1,205.5,378.6,204.3,380.2,203.2z"/>
	<path class="st9" d="M382.5,207c-1.1,1.3-2.3,2.5-3.7,3.5c-1.3,1.2-2.6,2.2-4,3.2c1.1-1.3,2.4-2.5,3.7-3.5
		C379.8,209.1,381.2,208,382.5,207z"/>
	<path class="st9" d="M384.8,210.4c-0.3,0.4-0.6,0.8-1,1.1c-0.8,0.9-1.7,1.7-2.7,2.4c-1,0.7-2.1,1.1-3.3,1.4c-0.5,0.1-1,0.1-1.5,0
		c0.5-0.1,0.9-0.2,1.4-0.3c1.1-0.3,2.2-0.8,3.2-1.4c1-0.7,1.9-1.4,2.7-2.2C384.3,210.7,384.8,210.4,384.8,210.4z"/>
	<path class="st9" d="M397.9,207.7c0,0.1-0.2,0.3-0.5,0.8c-0.4,0.6-0.8,1.3-1.2,1.8c-0.6,0.9-1.4,1.6-2.3,2.1c-0.1-0.1,0.9-1,2-2.4
		c0.5-0.7,0.9-1.3,1.3-1.8S397.8,207.7,397.9,207.7z"/>
	<path class="st9" d="M382.6,203.4c0,0.1-0.3,0.1-0.7,0c-0.6-0.2-1.1-0.6-1.4-1.1c-0.3-0.5-0.5-1.1-0.4-1.7c0.1-0.5,0.2-0.7,0.3-0.7
		c0,0.8,0.1,1.5,0.5,2.2C381.3,202.7,381.9,203.1,382.6,203.4z"/>
	<path class="st9" d="M384.9,207.3c0,0-0.2,0-0.5-0.1c-0.4-0.2-0.6-0.6-0.8-1c-0.1-0.4-0.2-0.8-0.1-1.2c0.1-0.3,0.2-0.4,0.3-0.4
		s-0.1,0.8,0.2,1.5S384.9,207.2,384.9,207.3z"/>
	<path class="st9" d="M386.4,211.1c0,0-0.2-0.1-0.4-0.3c-0.2-0.3-0.3-0.7-0.3-1.2c0-0.4,0.1-0.8,0.3-1.2c0.2-0.3,0.3-0.4,0.4-0.3
		s-0.3,0.7-0.3,1.5S386.5,211,386.4,211.1z"/>
	<path class="st0" d="M358.2,261.9c-0.1,0-0.3-17.5-0.4-39.1s0-39.1,0.1-39.1s0.3,17.5,0.4,39.1S358.4,261.9,358.2,261.9z"/>
	<polygon class="st6" points="368.2,172.5 358.2,182.3 343.4,172.5 339.3,178.4 358.2,190.4 371.6,177.3 	"/>
	<path class="st0" d="M358.2,183.1c-1-0.3-1.9-0.6-2.8-1l0.2-0.1c-0.8,1.7-2.1,4.2-3.5,7l-0.1,0.3l-0.2-0.2l-2.1-1.8
		c-2.9-2.4-5.5-4.6-7.4-6.2c-0.9-0.8-1.7-1.5-2.2-1.9c-0.3-0.2-0.5-0.5-0.8-0.8c0.3,0.2,0.6,0.4,0.9,0.6c0.5,0.4,1.3,1,2.3,1.8
		c1.9,1.5,4.5,3.7,7.4,6.1l2.1,1.8l-0.4,0.1c1.4-2.8,2.7-5.2,3.6-6.9l0.1-0.1l0.1,0.1C356.5,182.1,357.4,182.6,358.2,183.1z"/>
	<path class="st3" d="M357.3,189.2l-1-0.6c-3,1.2-5.4,4.8-5.8,8s0.5,6.4,1.4,9.6C356.3,201.7,358.3,195.4,357.3,189.2z"/>
	<path class="st3" d="M357.8,189.2l1-0.6c3,1.2,5.4,4.8,5.8,8s-0.5,6.4-1.4,9.6C358.8,201.7,356.8,195.4,357.8,189.2z"/>
	<polygon class="st3" points="353,187.2 355.7,187.6 357.4,186 354.9,183.4 	"/>
	<path class="st0" d="M355.7,187.6L355.7,187.6l-2.7-0.4l0,0l1.9-3.8l0,0l2.5,2.6l0,0L355.7,187.6z M353.1,187.2l2.7,0.4l1.6-1.5
		l-2.4-2.6L353.1,187.2z"/>
	<path class="st0" d="M358.5,182.9c0.7-0.7,1.5-1.4,2.3-2l0.2-0.1l0.1,0.2c0.9,1.7,2.1,4,3.5,6.6h-0.5c0.1-0.2,0.3-0.4,0.4-0.6
		c1.8-2.6,3.4-4.9,4.6-6.5c0.6-0.9,1.3-1.8,2-2.6c-0.5,1-1.1,1.9-1.7,2.8c-1.1,1.7-2.7,4-4.5,6.6l-0.4,0.6l-0.2,0.4l-0.2-0.4
		c-1.3-2.6-2.5-5-3.3-6.7l0.3,0.1C360.3,181.8,359.4,182.4,358.5,182.9z"/>
	<polygon class="st3" points="363.8,187 360,187.9 358.7,186.4 361.9,183.2 	"/>
	<path class="st0" d="M360,187.9L360,187.9l-1.3-1.5l0,0l3.2-3.2l0,0l1.9,3.8L360,187.9z M358.7,186.4l1.3,1.4l3.7-0.9l-1.9-3.7
		L358.7,186.4z"/>
	<path class="st3" d="M358.4,185.7l-0.6-0.1c-1.4,0-2.5,1.1-2.5,2.5s1.1,2.5,2.5,2.5s2.5-1.1,2.5-2.5
		C360.3,187,359.5,185.9,358.4,185.7z"/>
	<path class="st0" d="M358.4,185.7c0,0,0.2,0,0.6,0.1c0.5,0.3,1,0.7,1.2,1.2c0.4,0.8,0.4,1.8-0.2,2.6c-0.6,1-1.8,1.4-2.9,1.2
		c-0.9-0.2-1.5-0.8-1.9-1.7c-0.3-0.7-0.3-1.5,0.1-2.2c0.5-0.9,1.4-1.5,2.5-1.4l0,0C358.1,185.6,358.3,185.6,358.4,185.7
		c-0.2,0-0.4,0-0.6,0l0,0c-0.9,0.1-1.7,0.6-2.1,1.4c-0.3,0.6-0.3,1.2,0,1.8c0.3,0.7,0.9,1.2,1.5,1.4c0.9,0.2,1.9-0.2,2.4-0.9
		c0.5-0.6,0.5-1.4,0.2-2.1c-0.2-0.5-0.6-0.9-1-1.2C358.5,185.8,358.3,185.7,358.4,185.7z"/>
	<path class="st0" d="M379.4,198l-0.9-2.2c0,0,1.6-4.5-2.8-5.3c-2-0.4-4.3,0.7-6.1,1.9c-2.2,1.5-4.1,3.4-5.5,5.6l-3.3,5l1.6,3.1
		l10.2-0.7L379.4,198z"/>
	<polygon class="st1" points="362.8,205.3 361.6,203.2 371.6,202.4 372.1,204.6 	"/>
	<path class="st1" d="M378.5,194.5c-0.8,1.5-1.8,2.8-3,4c-1,1.3-2.2,2.4-3.4,3.5c0.9-1.4,1.9-2.7,3.1-3.9
		C376.2,196.8,377.3,195.6,378.5,194.5z"/>
	<rect x="319.4" y="256.5" class="st1" width="73.2" height="20.5"/>
	<path class="st0" d="M338.7,277c-0.3-3.4-0.3-6.8-0.3-10.2c-0.1-3.4,0-6.8,0.3-10.2c0.3,3.4,0.4,6.8,0.3,10.2
		C339,270.2,338.9,273.6,338.7,277z"/>
	<rect x="361.2" y="256.5" class="st7" width="9.4" height="6.5"/>
	<rect x="361.2" y="270.5" class="st7" width="9.4" height="6.5"/>
	<path class="st8" d="M316.5,260.3c0,0-0.9-2.6,2.1-3.5c2-0.6,8.1-1.7,7.1,1.1c-0.4,1-1.3,1.7-2.4,1.8c-1,0.2-1.9,0.6-2.6,1.3
		c-0.5,0.4-0.8,1-0.8,1.6c0.1,0.9,0,2.9,2.7,3.9s3.9,2,4.8,3.7c0.7,1.5-0.2,2.1-0.2,2.1s1.6,1.2,1.4,2.4c-0.1,0.5,0,0.9,0.3,1.3l0,0
		c0.3,0.6,0,1.4-0.6,1.7c-0.1,0.1-0.2,0.1-0.4,0.1h-0.1c0,0-8.1-0.3-9.9-2.4c-1-1.1-1.8-2.5-2.1-4c0,0-1.5-2.5,0.2-4
		c-0.6-2.9,0-4.3,1.1-5.2L316.5,260.3z"/>
	<path class="st9" d="M316.5,260.3c0.1,0.2,0.1,0.4,0.2,0.6c0.1,0.4,0.3,1,0.5,1.7v0h0c-0.6,0.5-1.1,1.2-1.2,2
		c-0.2,1-0.1,2.1,0.2,3.1v0.1l-0.1,0.1c-0.5,0.4-0.7,1.1-0.7,1.7c0,0.7,0.2,1.4,0.6,2.1l0,0l0,0c0.2,1,0.7,2,1.3,2.9
		c0.3,0.5,0.7,0.9,1.1,1.3c0.5,0.3,1,0.6,1.6,0.8c2.5,0.7,5.2,1.1,7.8,1.2l0,0c0.5,0,0.9-0.4,1-0.9c0.1-0.2,0-0.5-0.1-0.7
		c-0.2-0.3-0.3-0.6-0.3-0.9c0-0.3,0-0.6,0-0.9c0-0.3-0.1-0.5-0.2-0.7c-0.3-0.5-0.6-0.9-1.1-1.2l-0.2-0.2l0.2-0.2
		c0.1-0.1,0.1-0.1,0.2-0.2c0.3-0.6,0.2-1.2-0.1-1.7c-0.3-0.6-0.7-1.1-1.1-1.6c-1-0.8-2.1-1.5-3.3-1.9c-0.6-0.2-1.2-0.5-1.7-0.8
		c-0.5-0.4-0.9-1-1.1-1.6c-0.2-0.6-0.2-1.2-0.3-1.8c0.1-0.6,0.4-1.2,0.9-1.6l0,0c0.5-0.5,1.2-0.9,1.9-1.1c0.3-0.1,0.7-0.2,1-0.2
		c0.3,0,0.6-0.1,0.9-0.3c0.5-0.3,1-0.7,1.2-1.3c0.1-0.2,0.2-0.5,0.1-0.8c-0.1-0.3-0.2-0.5-0.4-0.6c-0.5-0.2-1-0.4-1.6-0.4
		c-0.5,0-1,0-1.6,0c-0.9,0.1-1.8,0.2-2.8,0.4c-0.7,0.1-1.4,0.4-2,0.8c-0.4,0.3-0.7,0.8-0.9,1.4C316.4,259.4,316.4,259.8,316.5,260.3
		c-0.1-0.1-0.2-0.2-0.2-0.4c-0.1-0.3-0.1-0.7,0-1.1c0.1-0.6,0.4-1.1,0.9-1.5c0.6-0.4,1.4-0.8,2.1-0.9c0.9-0.2,1.8-0.4,2.8-0.5
		c0.5-0.1,1.1-0.1,1.6-0.1c0.6,0,1.2,0.1,1.7,0.4c0.3,0.2,0.5,0.5,0.6,0.8c0.1,0.3,0,0.7-0.1,1c-0.3,0.6-0.7,1.2-1.4,1.5
		c-0.3,0.2-0.7,0.3-1,0.3c-0.3,0-0.7,0.1-1,0.2c-0.6,0.2-1.2,0.6-1.7,1.1l0,0c-0.4,0.3-0.7,0.8-0.8,1.3c0,0.6,0.1,1.1,0.3,1.7
		c0.2,0.5,0.5,1,0.9,1.4c0.5,0.4,1,0.7,1.6,0.8c1.3,0.4,2.4,1.1,3.4,1.9c0.5,0.5,0.9,1.1,1.2,1.7c0.4,0.7,0.4,1.5,0.1,2.1
		c-0.1,0.1-0.2,0.3-0.3,0.4v-0.4c0.5,0.4,0.9,0.8,1.2,1.4c0.2,0.3,0.2,0.6,0.3,0.9c0,0.3,0,0.5,0,0.8c0.1,0.3,0.1,0.5,0.3,0.7
		c0.2,0.3,0.2,0.7,0.1,1c-0.2,0.6-0.7,1.1-1.4,1.2h0c-1.4-0.1-2.8-0.2-4.1-0.4c-1.3-0.2-2.6-0.4-3.8-0.8c-0.6-0.2-1.2-0.5-1.7-0.8
		c-0.5-0.4-0.9-0.9-1.2-1.4c-0.7-0.9-1.1-2-1.4-3.1v0.1c-0.4-0.7-0.6-1.5-0.6-2.2c0-0.7,0.3-1.4,0.9-1.9v0.1
		c-0.3-1.1-0.3-2.2-0.1-3.2c0.2-0.8,0.7-1.5,1.3-2v0.1l-0.4-1.7C316.5,260.7,316.5,260.5,316.5,260.3z"/>
	<path class="st9" d="M327.2,272.4c-0.6,0-1.1-0.1-1.7-0.2c-1-0.2-2.4-0.6-3.9-1c-1.4-0.3-2.6-0.9-3.6-1.9c-0.8-0.7-1-1.4-1-1.4
		c0.7,0.9,1.6,1.6,2.6,2.2c0.6,0.3,1.3,0.6,2,0.7l3.9,1.2C326.1,272,326.7,272.2,327.2,272.4z"/>
	<path class="st9" d="M328.3,275.8c-0.7,0.2-1.4,0.3-2.1,0.3c-1.7-0.1-3.4-0.4-5-0.9l-1.4-0.4c-0.5-0.1-0.9-0.3-1.3-0.5
		c-0.6-0.5-1.2-1-1.6-1.7c-0.5-0.5-0.8-1.2-0.9-1.9c0.4,0.6,0.7,1.2,1.2,1.7c0.4,0.6,1,1.1,1.6,1.5c0.8,0.4,1.7,0.7,2.6,0.9
		c1.6,0.5,3.2,0.9,4.9,1C327.5,275.8,328.3,275.7,328.3,275.8z"/>
	<path class="st9" d="M323.4,259.8c-0.8,0.5-1.6,0.9-2.5,1.1c-0.6,0.3-1.2,0.4-1.9,0.5c-0.5,0.1-0.9,0-0.8-0.1s0.3-0.1,0.8-0.2
		s1.1-0.4,1.8-0.7C321.5,260.1,322.4,259.9,323.4,259.8z"/>
	<rect x="336.4" y="201.4" class="st3" width="7.7" height="5.3"/>
	<path class="st6" d="M340.2,205L340.2,205c-3.8-3.4-3.8-3.5-3.8-3.6h0.1l0.1-0.1c0.1,0.2,2.2,2,3.6,3.3l3.8-3.3l0.2,0.2L340.2,205z
		"/>
	<polygon class="st6" points="336.5,206.8 336.3,206.6 338.8,203.7 339,203.8 	"/>
	
		<rect x="342.7" y="203.2" transform="matrix(0.7823 -0.6229 0.6229 0.7823 -53.147 258.2279)" class="st6" width="0.2" height="4"/>
	<path class="st3" d="M345.8,208.3c-3.8,0.3-7.7,0.3-11.5,0C338.1,207.9,342,207.9,345.8,208.3z"/>
</g>
<g id="freepik--Counter--inject-4">
	<rect x="200.1" y="282.3" class="st6" width="352.2" height="193.1"/>
	<path class="st0" d="M552.9,475.9H199.6V281.8h353.2V475.9z M200.6,474.9h351.2V282.8H200.6L200.6,474.9z"/>
	<rect x="200.1" y="311.1" class="st3" width="352.2" height="39.2"/>
	<rect x="271.2" y="322.9" class="st7" width="26.2" height="18"/>
	<path class="st3" d="M284.4,335.2l-0.3-0.3c-12.7-11.4-12.7-11.7-12.7-12h0.5l0.4-0.2c0.4,0.6,7.5,7.1,12.1,11.2l12.8-11.3l0.7,0.7
		L284.4,335.2z"/>
	<rect x="268.9" y="337.2" transform="matrix(0.65 -0.76 0.76 0.65 -160.166 327.5667)" class="st3" width="13.2" height="1"/>
	
		<rect x="292.8" y="328.9" transform="matrix(0.7823 -0.6229 0.6229 0.7823 -145.2188 255.7481)" class="st3" width="1" height="13.5"/>
	<path class="st7" d="M325.3,326.1c2.6,1.3,3.8,4.4,2.5,7.1c-0.1,0.2-0.2,0.3-0.3,0.5c-0.5,0.8-1.3,1.5-2.2,1.9
		c-1.1,0.5-2.2,0.7-3.4,0.6h-3v4.1h-3.4v-14.8h6.4C323.1,325.5,324.3,325.7,325.3,326.1z M324.1,332.7c1.1-1,1.1-2.7,0.1-3.7
		c0,0,0,0-0.1-0.1c-0.7-0.5-1.5-0.7-2.3-0.7H319v5.1h2.8C322.6,333.4,323.4,333.2,324.1,332.7z"/>
	<path class="st7" d="M334,339.5c-1.2-0.6-2.2-1.6-2.9-2.7c-1.4-2.4-1.4-5.4,0-7.9c0.7-1.2,1.7-2.1,2.9-2.7c2.6-1.3,5.7-1.3,8.3,0
		c3.7,1.9,5.1,6.5,3.1,10.2c-0.7,1.3-1.8,2.4-3.1,3.1C339.7,340.9,336.6,340.9,334,339.5L334,339.5z M340.5,337
		c0.7-0.4,1.3-1,1.7-1.7c0.8-1.5,0.8-3.4,0-4.9c-0.4-0.7-1-1.3-1.7-1.7c-1.5-0.8-3.3-0.8-4.7,0c-0.7,0.4-1.3,1-1.7,1.7
		c-0.8,1.5-0.8,3.4,0,4.9c0.4,0.7,1,1.3,1.7,1.7C337.3,337.8,339,337.8,340.5,337z"/>
	<path class="st7" d="M350.3,340c-0.9-0.2-1.8-0.7-2.6-1.2l1.2-2.6c0.7,0.5,1.5,0.9,2.3,1.1c0.8,0.3,1.7,0.4,2.6,0.4
		c0.7,0,1.5-0.1,2.2-0.4c0.4-0.2,0.7-0.7,0.7-1.2c0-0.3-0.2-0.7-0.4-0.9c-0.3-0.3-0.6-0.4-1-0.6c-0.6-0.2-1.2-0.3-1.8-0.5
		c-0.9-0.2-1.9-0.5-2.8-0.8c-0.7-0.3-1.3-0.7-1.8-1.3c-0.5-0.7-0.8-1.5-0.8-2.4c0-0.8,0.2-1.6,0.7-2.3c0.5-0.7,1.3-1.3,2.1-1.7
		c1.1-0.4,2.3-0.7,3.4-0.6c0.9,0,1.9,0.1,2.8,0.3c0.8,0.2,1.6,0.5,2.4,1l-1,2.6c-1.2-0.7-2.7-1.1-4.1-1.2c-0.7-0.1-1.5,0.1-2.1,0.5
		c-0.4,0.3-0.7,0.7-0.7,1.2c0,0.5,0.3,1,0.8,1.1c0.8,0.3,1.6,0.6,2.4,0.7c0.9,0.2,1.9,0.5,2.8,0.8c0.7,0.3,1.3,0.7,1.9,1.3
		c0.5,0.7,0.8,1.5,0.8,2.4c0,0.8-0.2,1.6-0.7,2.3c-0.5,0.7-1.3,1.3-2.1,1.7c-1.1,0.4-2.3,0.7-3.5,0.6
		C352.6,340.6,351.4,340.4,350.3,340z"/>
	<path class="st7" d="M365.2,328.3h-4.7v-2.8h12.9v2.8h-4.7v12h-3.4V328.3z"/>
	<path class="st7" d="M384.2,339.5c-1.2-0.6-2.1-1.6-2.8-2.7c-1.4-2.4-1.4-5.3,0-7.7c0.7-1.1,1.6-2.1,2.8-2.7c1.2-0.7,2.6-1,4-1
		c1.4,0,2.8,0.3,4,1c1.2,0.6,2.1,1.6,2.8,2.7c1.4,2.4,1.4,5.3,0,7.8c-0.7,1.1-1.6,2.1-2.8,2.7c-1.2,0.7-2.6,1-4,1
		C386.9,340.5,385.5,340.1,384.2,339.5z M391.2,337.8c0.8-0.5,1.5-1.2,2-2c1-1.8,1-4,0-5.8c-0.5-0.8-1.2-1.5-2-2
		c-0.9-0.5-1.9-0.8-2.9-0.7c-1,0-2.1,0.2-3,0.7c-0.9,0.5-1.6,1.2-2.1,2c-1,1.8-1,4,0,5.8c0.5,0.8,1.2,1.5,2.1,2c0.9,0.5,2,0.8,3,0.7
		C389.3,338.6,390.3,338.3,391.2,337.8L391.2,337.8z"/>
	<path class="st7" d="M401.5,327.3v5.1h7.4v1.8h-7.4v6h-2.1v-14.8h10.4v1.8H401.5z"/>
	<path class="st7" d="M414.9,327.3v5.1h7.4v1.8h-7.4v6h-2.1v-14.8h10.4v1.8H414.9z"/>
	<path class="st7" d="M426.2,325.5h2.1v14.8h-2.1V325.5z"/>
	<path class="st7" d="M435.4,339.5c-1.2-0.6-2.1-1.6-2.8-2.7c-1.4-2.4-1.4-5.3,0-7.8c0.7-1.1,1.6-2.1,2.8-2.7
		c2.2-1.1,4.8-1.3,7.2-0.4c0.9,0.4,1.8,1,2.5,1.7l-1.4,1.3c-1.1-1.2-2.6-1.8-4.2-1.8c-1,0-2.1,0.2-3,0.7c-0.9,0.5-1.6,1.2-2.1,2
		c-1,1.8-1,4,0,5.8c0.5,0.8,1.2,1.5,2.1,2c0.9,0.5,2,0.8,3,0.7c1.6,0,3.1-0.6,4.2-1.8l1.4,1.3c-0.7,0.8-1.5,1.4-2.5,1.7
		c-1,0.4-2.1,0.6-3.2,0.6C438,340.4,436.6,340.1,435.4,339.5z"/>
	<path class="st7" d="M458.8,338.4v1.8H448v-14.8h10.5v1.8h-8.3v4.5h7.4v1.8h-7.4v4.8H458.8z"/>
	<rect x="200.1" y="360.7" class="st3" width="352.2" height="7.2"/>
	<rect x="194.4" y="273.3" class="st6" width="364.7" height="18"/>
	<path class="st0" d="M559.2,291.3c0-0.5,0-5.8-0.1-18l0.1,0.1l-364.7,0.2l0,0l0.3-0.3v18l-0.3-0.3l258.5,0.1L559.2,291.3l-1.8,0
		h-5.5h-21l-77.7,0.1l-258.7,0.1h-0.3V273h0.3l364.7,0.2h0.1v0.1C559.2,285.5,559.2,290.8,559.2,291.3z"/>
	<rect x="417.4" y="260.3" class="st1" width="128.3" height="12.7"/>
	<rect x="454.2" y="253.9" class="st1" width="72.6" height="6.4"/>
	<g class="st11">
		<rect x="454.2" y="253.9" width="72.6" height="6.4"/>
	</g>
	<rect x="462.4" y="201.2" class="st1" width="62.7" height="48.4"/>
	<rect x="467.7" y="238.6" class="st4" width="4.8" height="5.4"/>
	<rect x="498.9" y="201.3" class="st5" width="7.1" height="10.3"/>
	<rect x="498.9" y="239.1" class="st5" width="7.1" height="10.3"/>
	<path class="st0" d="M478.1,249.6c-0.1,0-0.3-10.9-0.3-24.3s0.1-24.3,0.3-24.3s0.3,10.9,0.3,24.3S478.2,249.6,478.1,249.6z"/>
	<rect x="447.7" y="249.6" class="st6" width="85.5" height="4.2"/>
	<path class="st0" d="M447.7,253.8c0,0,0-0.1,0-0.2s0-0.4,0-0.8c0-0.7,0-1.8,0-3.2v-0.1h0.1c10.8-0.1,45-0.2,85.5-0.2l0,0l0.3,0.3
		l0,0v4.5h-0.3l-60.7-0.1l-18.2-0.1h-4.9h-1.3C448,253.9,447.9,253.9,447.7,253.8l0.4,0.1h1.3h5l18.2-0.1l60.5-0.1L533,254v-4.4l0,0
		l0.3,0.3l0,0c-40.5,0-74.7-0.1-85.5-0.2l0.1-0.1c0,1.4,0,2.5,0,3.2c0,0.3,0,0.6,0,0.8S447.7,253.8,447.7,253.8z"/>
	<path class="st0" d="M544.9,260.2c0,0.1-28.4,0.3-63.4,0.3s-63.4-0.1-63.4-0.3s28.4-0.3,63.4-0.3S544.9,260.1,544.9,260.2z"/>
	<path class="st0" d="M461.4,273c-0.3-2.1-0.3-4.2-0.3-6.4c-0.1-2.1,0-4.2,0.3-6.3c0.3,2.1,0.4,4.2,0.3,6.3
		C461.8,268.8,461.7,270.9,461.4,273z"/>
	<rect x="420.7" y="264" class="st7" width="36" height="6.2"/>
	<path class="st0" d="M456.8,270.2h-36v-6.3h36V270.2z M420.8,270.2h36V264h-35.9L420.8,270.2z"/>
	<path class="st0" d="M437.9,268.6v-0.4h-0.4v-0.4H437v-1.3h0.4V266h0.4v-0.4h1.3v0.4h0.4v0.4h0.4v1.3h-0.4v0.4h-0.4v0.4
		L437.9,268.6z M438.3,268.2h0.9v-1.8h-0.4V266h-0.9v1.8h0.4V268.2z"/>
	<path class="st0" d="M440.5,268.6v-0.9h0.5v-0.4h0.4v-0.4h0.9v-0.4h0.4V266h-1.3v0.4h-0.9V266h0.4v-0.4h2.2v0.4h0.4v0.9h-0.4v0.4
		h-0.4v0.4h-0.9v0.4h1.8v0.4L440.5,268.6z"/>
	<path class="st0" d="M447.5,268.6v-3.1h0.9v1.8h0.9v-0.4h0.4v-0.4h0.9v0.4h-0.4v0.4h-0.4v0.4h0.4v0.4h0.4v0.4h-0.9v-0.4h-0.4v-0.4
		h-0.9v0.9H447.5z"/>
	<path class="st0" d="M451.5,269.1v-0.4h1.8v-0.4h-1.8v-0.4H451v-0.9h0.4v-0.4h2.6v2.2h-0.4v0.4H451.5z M451.9,267.8h1.3v-0.9h-1.3
		V267.8z"/>
</g>
<g id="freepik--character-3--inject-4">
	<path class="st8" d="M639,134.3l2.1,40.6c0.3,6.6-4.5,12.4-11.1,13.2l0,0c-6.9,0.8-13.2-4.1-14.1-11c0-0.3-0.1-0.5-0.1-0.8
		c-0.2-3.9-0.4-7-0.4-7s-9.9-0.3-11.2-10.1c-0.8-5.6-1.3-18.5-1.7-28.4c-0.2-6.7,4.7-12.4,11.3-13.2l5.9-0.7
		c10-0.6,18.7,7,19.3,17.1C639,134,639,134.2,639,134.3z"/>
	<path class="st9" d="M615.4,169.2c4.5-0.6,8.7-2.4,12.2-5.3c0,0-2.3,7.5-12.1,7.8L615.4,169.2z"/>
	<path class="st0" d="M605.4,139.9c0.2,0.2,1.2-0.8,2.7-0.9s2.7,0.4,2.8,0.2s-0.1-0.4-0.7-0.7c-0.7-0.4-1.5-0.5-2.3-0.4
		c-0.8,0.1-1.5,0.5-2.1,1C605.5,139.4,605.3,139.8,605.4,139.9z"/>
	<path class="st0" d="M619.4,142.3c0.1,0.8,0.8,1.3,1.5,1.2c0.7,0,1.3-0.6,1.3-1.4c0,0,0,0,0-0.1c-0.1-0.8-0.8-1.3-1.5-1.2
		C619.9,140.9,619.3,141.6,619.4,142.3C619.4,142.3,619.4,142.3,619.4,142.3z"/>
	<path class="st0" d="M606.4,143.9c0.1,0.8,0.8,1.3,1.5,1.2c0.7,0,1.3-0.7,1.3-1.4c0,0,0,0,0,0c-0.1-0.8-0.8-1.3-1.5-1.2
		C607,142.5,606.4,143.1,606.4,143.9C606.4,143.9,606.4,143.9,606.4,143.9z"/>
	<path class="st0" d="M619.9,138.3c0.2,0.2,1.2-0.7,2.7-0.9s2.7,0.4,2.8,0.2s-0.2-0.4-0.7-0.7c-0.7-0.4-1.5-0.5-2.3-0.4
		c-0.8,0.1-1.5,0.5-2.1,1C620,137.9,619.8,138.2,619.9,138.3z"/>
	<path class="st0" d="M616,150.6c-0.8-0.2-1.7-0.2-2.5-0.1c-0.4,0-0.8,0-0.8-0.3c-0.1-0.4,0-0.8,0.1-1.2c0.2-1,0.5-2,0.8-3.1
		c1.1-4.3,1.8-7.9,1.6-7.9s-1.2,3.4-2.2,7.8c-0.3,1.1-0.5,2.1-0.7,3.1c-0.2,0.5-0.2,1,0,1.5c0.1,0.3,0.4,0.4,0.7,0.5
		c0.2,0,0.4,0,0.7,0C614.4,150.9,615.2,150.8,616,150.6z"/>
	<path class="st0" d="M620.6,151.1c-0.2,0,0,1.6-1.3,3s-3,1.4-3,1.6s0.4,0.3,1.2,0.2c1-0.1,1.8-0.5,2.5-1.2c0.6-0.7,1-1.6,1-2.5
		C620.9,151.5,620.7,151.1,620.6,151.1z"/>
	<path class="st0" d="M619.4,132.9c0.2,0.4,1.7,0,3.5,0s3.3,0.3,3.5-0.1c0.1-0.2-0.2-0.5-0.8-0.9c-1.7-0.8-3.6-0.8-5.3,0.1
		C619.6,132.3,619.3,132.7,619.4,132.9z"/>
	<path class="st0" d="M604.7,135.4c0.3,0.3,1.3-0.2,2.5-0.3s2.3-0.1,2.5-0.4c0.1-0.2-0.1-0.5-0.6-0.8c-0.7-0.3-1.4-0.4-2.1-0.3
		c-0.7,0.1-1.4,0.4-1.9,0.9C604.6,134.9,604.5,135.2,604.7,135.4z"/>
	<path class="st8" d="M636.6,142c0.2-0.1,6.5-2.8,7.1,3.9s-6.2,5.9-6.3,5.7S636.6,142,636.6,142z"/>
	<path class="st9" d="M639.2,148.9c0,0,0.1,0.1,0.3,0.1c0.3,0.1,0.6,0.1,0.9-0.1c0.8-0.6,1.2-1.7,1.1-2.7c0-0.6-0.2-1.1-0.5-1.6
		c-0.2-0.4-0.5-0.7-1-0.8c-0.3,0-0.6,0.1-0.7,0.4c-0.1,0.2,0,0.3,0,0.3s-0.2-0.1-0.1-0.4c0-0.2,0.1-0.3,0.2-0.4
		c0.2-0.2,0.4-0.2,0.6-0.2c0.6,0.1,1.1,0.4,1.3,0.9c0.3,0.6,0.5,1.2,0.6,1.8c0.2,1.2-0.4,2.4-1.4,3c-0.4,0.1-0.8,0.1-1.1-0.1
		C639.2,149.1,639.2,148.9,639.2,148.9z"/>
	<path class="st0" d="M640.3,141.4c-1.3,0.1-2.4,0.8-3,2c-0.3,1-0.3,2.1-0.6,3.1s-1.2,2-2.2,1.9c-0.7-0.1-1.3-0.7-1.6-1.4
		c-0.2-0.7-0.3-1.4-0.3-2.1c0-3.2,0.3-6.3,0-9.5c-0.1-3.2-1.2-6.2-3.1-8.8c-1.9-2.6-5.1-3.9-8.3-3.4c-2,0.4-3.8,1.7-5.8,2.3
		c-2.4,0.6-5,0.1-7-1.4c-0.4-0.3-0.9-0.5-1.4-0.8c-0.1-0.7,0.1-1.5,0.5-2.1c3.6-4.3,10.9-6.2,16.4-5.5c5.7,0.7,10.8,3.9,14,8.7
		C640.8,128.9,640.9,136.1,640.3,141.4"/>
	<path class="st0" d="M612.7,120.1c3.7-0.3,10.9,0.2,14.1,2.2c0.4,0.2,0.8,0.6,0.6,1s-0.5,0.4-0.9,0.4c-3.4,0.6-6.7,1.5-9.8,2.7
		c-2,1-4.2,1.6-6.4,1.7c-2.3,0.2-4.4-0.9-5.7-2.8l-0.9,0.5C605.5,122.5,608.9,120.3,612.7,120.1z"/>
	<path class="st3" d="M602.2,129.3c1.8-2.1,4.2-3.6,6.9-4.2c8.3-1.8,22.5-0.8,31.5,12.8c0.5-2.6,0.7-5.3,0.6-7.9
		c-0.2-2-2.9-13.7-15.5-15.9C625.7,114.1,606.5,109.4,602.2,129.3z"/>
	<g class="st11">
		<path d="M602.2,129.3c1.9-2.5,4.6-4.2,7.7-4.7c7.5-1.2,22.2,0.5,30.7,13.3c0.5-2.6,0.7-5.3,0.6-7.9c-0.2-2-2.9-13.7-15.5-15.9
			C625.7,114.1,606.5,109.4,602.2,129.3z"/>
	</g>
	<path class="st3" d="M639.2,136c-4.4-5.7-10.4-9.2-16.7-12.2s-16.5-5.4-23.4-6.4c-2.1-0.4-4.2-0.4-6.2,0.1
		c-2.1,0.5-3.7,2.2-4.1,4.3c-0.3,2.6,4.6,6,6.9,7.2c2.2,1.1,4.5,2.1,6.9,3c0,0-0.6-4.7,6.8-6.6C619.3,123,639.5,136.2,639.2,136z"/>
	<path class="st1" d="M689.9,440.6l16,15.2c0,0-15.8,18-13.8,21.8l38.5-22.2l-23.8-26.8L689.9,440.6z"/>
	<g class="st10">
		<path class="st7" d="M716.5,446.8c0.9-0.2,1.8,0.2,2.2,1.1c0.3,0.9-0.2,1.8-1.1,2.1c-0.9,0.3-1.9-0.2-2.3-1.2
			c-0.2-1,0.4-1.9,1.3-2.1"/>
	</g>
	<g class="st10">
		<path class="st7" d="M730.7,455.3l-2.4-2.7L692.3,475c-0.6,0.9-0.6,2-0.2,2.9L730.7,455.3z"/>
	</g>
	<path class="st0" d="M705.2,455.9c0.1,0.2,1.1-0.3,2.4-0.3s2.2,0.5,2.4,0.3s-0.8-1.1-2.4-1.1S705,455.8,705.2,455.9z"/>
	<path class="st0" d="M702.2,460c0.1,0.2,1.1,0,2.2,0.4s1.8,1.1,2,1s-0.3-1.2-1.8-1.7S702.1,459.9,702.2,460z"/>
	<path class="st0" d="M703,466.2c0.2-0.1-0.1-1.1-1.2-1.9s-2.2-0.6-2.2-0.4s0.9,0.4,1.8,1S702.8,466.3,703,466.2z"/>
	<path class="st0" d="M702.7,451.3c0.2,0.1,0.9-0.7,2-1.2s2.1-0.8,2.1-1s-1.2-0.4-2.5,0.3S702.5,451.2,702.7,451.3z"/>
	<path class="st0" d="M700.2,447.4c0,0.1,0.8-0.3,1.9-1.2c0.6-0.5,1.1-1.2,1.6-1.8c0.3-0.4,0.5-0.8,0.7-1.3c0.1-0.2,0.2-0.5,0.3-0.8
		c0.1-0.4-0.1-0.8-0.5-1c-0.4-0.1-0.7-0.1-1.1,0.1c-0.2,0.1-0.5,0.3-0.6,0.5c-0.3,0.3-0.7,0.7-0.9,1.1c-0.5,0.7-0.8,1.4-1,2.2
		c-0.3,0.7-0.3,1.5-0.2,2.2c0.1,0,0.2-0.8,0.7-2.1c0.3-0.7,0.6-1.4,1.1-2c0.3-0.4,0.6-0.7,0.9-1c0.3-0.4,0.7-0.6,0.9-0.5
		s0.1,0.1,0.1,0.2c0,0.2-0.1,0.4-0.2,0.6c-0.2,0.4-0.4,0.8-0.6,1.2c-0.4,0.7-0.9,1.3-1.4,1.9C700.8,446.8,700.1,447.3,700.2,447.4z"
		/>
	<path class="st0" d="M700.6,447.5c0.1,0,0-0.9-0.6-2.1c-0.4-0.7-0.9-1.4-1.6-1.9c-0.4-0.3-0.8-0.6-1.2-0.9
		c-0.5-0.4-1.2-0.4-1.8-0.2c-0.3,0.2-0.5,0.6-0.5,1c0,0.3,0.1,0.6,0.2,0.8c0.2,0.5,0.5,0.9,0.8,1.3c0.5,0.6,1.2,1.1,2,1.4
		c0.7,0.4,1.5,0.4,2.2,0.2c-0.7-0.2-1.3-0.4-2-0.7c-0.7-0.3-1.3-0.8-1.7-1.4c-0.3-0.3-0.5-0.7-0.7-1.1c-0.2-0.4-0.2-0.9-0.1-0.9
		c0.4-0.1,0.7,0,1,0.2c0.4,0.2,0.8,0.4,1.2,0.7c0.6,0.5,1.1,1,1.5,1.6C700.2,446.8,700.5,447.6,700.6,447.5z"/>
	<path class="st1" d="M569.4,441.9l-3.8,20.6c0,0-22.8,7.5-22.9,11.7l43.4,0.5l3.2-32.8H569.4z"/>
	<g class="st10">
		<path class="st7" d="M582.5,461.8c0.9,0.2,1.4,1.1,1.3,2c-0.2,0.9-1.1,1.5-2,1.3c-0.9-0.2-1.5-1.2-1.4-2.1
			c0.3-0.9,1.3-1.4,2.2-1.1"/>
	</g>
	<g class="st10">
		<path class="st7" d="M586.1,474.7l0.7-3.1l-42.6,0.5c-0.9,0.5-1.6,1.4-1.7,2.4L586.1,474.7z"/>
	</g>
	<path class="st0" d="M564.9,462.3c0,0.2,1.1,0.3,2.2,1s1.7,1.6,1.9,1.5s-0.2-1.3-1.5-2.1S564.8,462.1,564.9,462.3z"/>
	<path class="st0" d="M560.3,464.3c0,0.2,0.9,0.5,1.7,1.5s1,1.9,1.2,1.9s0.3-1.2-0.7-2.3S560.3,464.1,560.3,464.3z"/>
	<path class="st0" d="M557.8,470c0.2,0,0.5-1.1-0.1-2.2s-1.6-1.6-1.7-1.4s0.6,0.8,1,1.8S557.6,469.9,557.8,470z"/>
	<path class="st0" d="M566.7,457.5c0.1,0.2,1.1-0.1,2.3-0.1s2.2,0.4,2.3,0.2s-0.8-0.9-2.3-1S566.6,457.3,566.7,457.5z"/>
	<path class="st0" d="M669.6,292.2c0.7,0.5,2.4,25.2,0,30.6l6,44.5c0,0,16.1,25.6,19.3,29.3s24.3,40,24.3,40l-23.7,20.5
		c0,0-41.2-53.9-47.9-63.4c-10.4-15-22.7-71.2-22.7-71.2l-1.6-27.9L669.6,292.2z"/>
	<path class="st0" d="M637.2,327.8c-0.7,1.3-32.8,50.7-32.8,50.7s-4.9,26.1-6,37.7s-9,41.2-9,41.2l-25.8-2c0,0,7-76.3,11.3-91.2
		s16.3-43.6,16.3-43.6l10.1-26.9l29.2,0.5L637.2,327.8z"/>
	<path class="st1" d="M618.9,301.7c0,0.3,0.1,0.5,0.2,0.8c0.1,0.6,0.3,1.3,0.5,2.3c0.5,2,1.2,4.8,2.1,8.3c1.8,7,4.3,16.7,7.2,27.3
		s5.8,20.2,7.9,27.1c1.1,3.5,2,6.2,2.6,8.1c0.3,0.9,0.6,1.7,0.8,2.2c0.1,0.3,0.2,0.5,0.3,0.8c0-0.3-0.1-0.5-0.2-0.8l-0.7-2.2
		l-2.5-8.2c-2.1-6.9-4.9-16.5-7.8-27.2S623.9,320,622,313c-1-3.5-1.7-6.3-2.3-8.3l-0.6-2.2C619.1,302.2,619,301.9,618.9,301.7z"/>
	<polygon class="st1" points="487.2,402.6 420.6,344.4 442.7,320.6 507.3,379.6 	"/>
	
		<rect x="482.8" y="383.3" transform="matrix(0.6583 -0.7528 0.7528 0.6583 -124.7635 498.4585)" class="st4" width="7.7" height="6.8"/>
	<polygon class="st5" points="435.4,328.4 425.5,339.1 433.5,346.1 443.1,335.2 	"/>
	<path class="st0" d="M470.2,388.4c-0.1-0.1,4.5-5.5,10.2-12.1s10.5-11.8,10.6-11.7s-4.5,5.5-10.2,12.1S470.3,388.5,470.2,388.4z"/>
	
		<rect x="396.3" y="353.8" transform="matrix(0.6583 -0.7528 0.7528 0.6583 -152.575 459.9986)" class="st1" width="68.2" height="88.5"/>
	<g class="st2">
		<rect x="396.3" y="353.8" transform="matrix(0.6583 -0.7528 0.7528 0.6583 -152.575 459.9986)" width="68.2" height="88.5"/>
	</g>
	
		<rect x="436.9" y="433.5" transform="matrix(0.6583 -0.7528 0.7528 0.6583 -178.255 481.0503)" class="st4" width="7.7" height="6.8"/>
	
		<rect x="431.5" y="364.9" transform="matrix(0.6583 -0.7528 0.7528 0.6583 -128.5635 456.6982)" class="st5" width="14.6" height="10"/>
	
		<rect x="396.4" y="405" transform="matrix(0.6583 -0.7528 0.7528 0.6583 -170.7444 443.9976)" class="st5" width="14.6" height="10"/>
	<path class="st0" d="M424.3,438.7c-0.1-0.1,9.7-11.5,21.9-25.4s22.1-25.1,22.3-25s-9.7,11.5-21.9,25.4S424.4,438.8,424.3,438.7z"/>
	
		<rect x="488.3" y="272.3" transform="matrix(0.6583 -0.7528 0.7528 0.6583 -56.2278 494.7218)" class="st1" width="57.1" height="74"/>
	
		<rect x="522.3" y="338.9" transform="matrix(0.6583 -0.7528 0.7528 0.6583 -77.7132 512.3307)" class="st4" width="6.4" height="5.7"/>
	
		<rect x="517.7" y="281.6" transform="matrix(0.6583 -0.7528 0.7528 0.6583 -36.1324 491.9646)" class="st5" width="12.2" height="8.4"/>
	
		<rect x="488.4" y="315.1" transform="matrix(0.6583 -0.7528 0.7528 0.6583 -71.4313 481.3344)" class="st5" width="12.2" height="8.4"/>
	<path class="st0" d="M511.7,343.3c-0.1-0.1,8.1-9.6,18.3-21.3s18.5-21,18.7-20.9s-8.1,9.6-18.3,21.3S511.8,343.4,511.7,343.3z"/>
	<polygon class="st1" points="505.4,378 438.8,319.8 460.9,296 525.5,355 	"/>
	<g class="st2">
		<polygon points="505.4,378 438.8,319.8 460.9,296 525.5,355 		"/>
	</g>
	
		<rect x="501.1" y="358.6" transform="matrix(0.6583 -0.7528 0.7528 0.6583 -99.9996 503.7678)" class="st4" width="7.7" height="6.8"/>
	
		<rect x="460.6" y="330.2" transform="matrix(0.6583 -0.7528 0.7528 0.6583 -92.4834 466.7172)" class="st5" width="14.6" height="10"/>
	<path class="st0" d="M488.5,363.8c-0.1-0.1,4.4-5.5,10-12s10.2-11.7,10.4-11.6s-4.4,5.5-10,12S488.6,363.9,488.5,363.8z"/>
	<circle class="st1" cx="464.4" cy="458.3" r="18"/>
	<g class="st2">
		<circle cx="464.4" cy="458.3" r="11.1"/>
	</g>
	<path class="st8" d="M599.2,203.1c-0.5,0.5-24.9,26.3-24.9,26.3l-45.4,24.3l5.4,6.4c0.7,3.1,47.5-11.3,55-18.5
		c5-4.8,20.7-18.8,20.7-18.8l-3.5-24.6L599.2,203.1z"/>
	<path class="st8" d="M536.8,256.8l-7.9-3.1c-0.4,0.6-9.3,5.4-14,6.5c-3.5,0.9-6.9,2.1-10.3,3.5l0.1,0.4c1.1,1.2,2.7,1.6,4.2,1.1
		c4.6-1,13-2.7,12.9-2.4s-5.5,4.1-5.8,6.4c-0.3,2,1.2,1.4,2.7,0.5s15-5,16.5-8.6S536.8,256.8,536.8,256.8z"/>
	<path class="st3" d="M623.6,177.5l-11.4,4.6c-2.8,0.8-6.6,7-9.9,10.9l-14.7,15.2l20.3,24.7L623.6,177.5z"/>
	<path class="st3" d="M641.2,164.2l5.5,6.8c0,0,21.4,7.9,23.6,13.3c3.1,7.5-1,30.9-1,30.9l-5.7,50.4l7.7,27.9l-70.9,1.2
		c0,0,4.3-73.1,5.3-80.9c0.7-5.4,6.3-27.6,9-36l0.6,2.9l0.3-1.3L641.2,164.2z"/>
	<path class="st0" d="M607,199.7c0,0.1,0,0.2,0,0.2c0,0.2,0,0.4-0.1,0.7c-0.1,0.6-0.2,1.5-0.3,2.7c-0.2,2.3-0.5,5.6-0.9,9.8
		c-0.7,8.2-1.5,19.7-2.3,32.3c-0.8,12.6-1.5,24-2.2,32.3c-0.3,4.1-0.6,7.4-0.7,9.8c-0.1,1.1-0.1,2-0.2,2.7c0,0.3,0,0.5,0,0.7
		c0,0.1,0,0.2,0,0.2c0,0,0-0.1,0-0.2s0-0.4,0.1-0.7c0.1-0.6,0.2-1.5,0.3-2.6c0.2-2.3,0.5-5.6,0.9-9.8c0.7-8.2,1.5-19.7,2.3-32.3
		s1.5-24,2.2-32.3c0.3-4.1,0.6-7.4,0.7-9.8c0.1-1.1,0.1-2,0.2-2.7c0-0.3,0-0.5,0-0.7C607,199.8,607,199.8,607,199.7z"/>
	<path class="st0" d="M615.8,179.4c0.3,0.4,0.6,0.8,0.9,1.3c0.5,0.8,1.3,2.1,2.4,3.5c0.3,0.4,0.6,0.7,0.9,1.1c0.3,0.4,0.7,0.8,1,1.1
		c0.3,0.4,0.8,0.6,1.3,0.7c0.5-0.1,1.1-0.3,1.5-0.6c2-1.3,4.2-2.8,6.5-4.3c4.5-3.1,8.7-5.9,11.7-7.9c1.5-1,2.8-1.8,3.6-2.3
		c0.4-0.3,0.9-0.5,1.4-0.8c-0.4,0.3-0.8,0.7-1.3,0.9l-3.5,2.4l-11.6,8.1c-2.3,1.6-4.5,3-6.5,4.3c-0.5,0.4-1.1,0.6-1.7,0.7
		c-0.6,0-1.2-0.3-1.6-0.8c-0.4-0.4-0.7-0.8-1-1.2c-0.3-0.3-0.6-0.7-0.9-1.1c-1-1.5-1.8-2.8-2.2-3.7
		C616.2,180.4,616,179.9,615.8,179.4z"/>
	<path class="st0" d="M618.7,201.3c-0.4,0.1-0.9,0.1-1.4,0.1c-0.9,0.1-2.1,0.1-3.7,0.2h-0.2v-0.2c0.2-2.1,0.5-4.7,0.8-7.5
		c0.4-3.4,0.8-6.6,1.1-8.8c0.2-1.1,0.3-2,0.4-2.7c0-0.3,0.1-0.7,0.2-1c0,0.3,0,0.7,0,1c0,0.6-0.1,1.6-0.2,2.7
		c-0.2,2.3-0.5,5.4-1,8.8c-0.3,2.8-0.7,5.4-0.9,7.5l-0.2-0.2c1.5,0,2.8,0,3.7,0C617.8,201.1,618.2,201.2,618.7,201.3z"/>
	<path class="st6" d="M618.7,193.6c0.8,0.3,1.3,1.3,1.1,2.1c-0.3,0.9-1.2,1.3-2.1,1.1c-0.9-0.3-1.3-1.3-1-2.1
		C617,193.9,617.8,193.4,618.7,193.6"/>
	<rect x="631.1" y="200.6" class="st7" width="8.3" height="5.7"/>
	<path class="st3" d="M635.2,204.5l-4.2-3.8l0.2-0.2l4.1,3.6c1.5-1.4,3.7-3.4,3.9-3.6h0.1h0.2c0,0.1,0,0.2-4,3.8L635.2,204.5z"/>
	<polygon class="st3" points="639.3,206.4 636.6,203.2 636.8,203.1 639.5,206.2 	"/>
	
		<rect x="630.2" y="204.5" transform="matrix(0.6224 -0.7827 0.7827 0.6224 78.6365 572.2592)" class="st3" width="4.3" height="0.2"/>
	<path class="st7" d="M629.2,208c4.1-0.3,8.3-0.3,12.4,0C637.5,208.3,633.3,208.3,629.2,208z"/>
	<g class="st2">
		<polygon points="657.1,248 653.9,232.1 650.2,232 648.6,210.1 652.3,227.8 656.4,226.9 660.2,247.4 		"/>
	</g>
	<path class="st3" d="M683.7,220.8l-31.3,7c0,0-4.9-20.7-5-26.4s7-23.2,17.9-19.6c0,0,3.3-0.7,6.3,3.8
		C672.7,187.3,683.7,220.8,683.7,220.8z"/>
	<path class="st0" d="M648,198.8c-0.1-1.5,0-3,0.3-4.5c0.4-1.6,0.9-3.2,1.7-4.6c0.8-1.8,2-3.5,3.6-4.7c1.7-1.1,3.6-1.9,5.5-2.2
		c1.6-0.2,3.3-0.3,4.9-0.2c1.1,0,2.2,0.2,3.3,0.4c0.4,0.1,0.8,0.2,1.2,0.3c-0.1-0.1-0.2-0.1-0.3-0.2c-0.3-0.1-0.6-0.2-0.9-0.3
		c-1.1-0.3-2.2-0.5-3.3-0.6c-1.7-0.1-3.3-0.1-5,0.1c-2.1,0.3-4,1-5.8,2.2c-1.7,1.3-3,2.9-3.8,4.9c-0.7,1.5-1.3,3.1-1.6,4.8
		c-0.2,1.1-0.3,2.3-0.2,3.4c0,0.3,0.1,0.6,0.1,0.9C648,198.6,648,198.7,648,198.8z"/>
	<path class="st8" d="M615.4,272.2c0,0-15.9,2.4-16.8,4.8s-1.2,11.5,0.9,13.9s8.2,1.5,7.5-0.5s-3.8-1.3-3.8-1.3l-2-5.5l2.8-2.2
		c0,0,4.2,4,5.7,3.9s5.6,1.7,8.3-2s4.6-4.1,4.6-4.1L615.4,272.2z"/>
	<path class="st8" d="M614.8,282.9c-0.3,0.2-2.5,4.4-5,5.9s-5.9,3.2-6.8,1.7c-0.6-1-1-2.1-1.2-3.3l9.8-4.9L614.8,282.9z"/>
	<path class="st6" d="M439.9,458.8l-52.5-46c-1.1-1-1.3-2.7-0.3-3.9c1-1.1,2.7-1.3,3.9-0.3l0,0l50.4,44.1
		c25.9-30.6,131.9-155.5,136.6-158.5c3.4-1.9,7-3.6,10.7-4.8c2.5-0.9,5-1.9,7.4-3.1c2.7-1.5,5.1-3.5,7.1-5.8c1-1.1,2.8-1.2,3.9-0.2
		c1.1,1,1.2,2.6,0.4,3.7c-2.5,2.9-5.4,5.3-8.7,7.2c-2.6,1.3-5.4,2.5-8.2,3.5c-3.3,1.1-6.5,2.5-9.6,4.2
		c-5.1,4.2-84.8,97.7-137.3,159.6c-0.5,0.6-1.2,0.9-1.9,1h-0.2C441.1,459.5,440.4,459.3,439.9,458.8z M581.1,298.9L581.1,298.9z"/>
	<path class="st12" d="M439.9,458.8l-52.5-46c-1.1-1-1.3-2.7-0.3-3.9c1-1.1,2.7-1.3,3.9-0.3l0,0l50.4,44.1
		c25.9-30.6,131.9-155.5,136.6-158.5c3.4-1.9,7-3.6,10.7-4.8c2.5-0.9,5-1.9,7.4-3.1c2.7-1.5,5.1-3.5,7.1-5.8c1-1.1,2.8-1.2,3.9-0.2
		c1.1,1,1.2,2.6,0.4,3.7c-2.5,2.9-5.4,5.3-8.7,7.2c-2.6,1.3-5.4,2.5-8.2,3.5c-3.3,1.1-6.5,2.5-9.6,4.2
		c-5.1,4.2-84.8,97.7-137.3,159.6c-0.5,0.6-1.2,0.9-1.9,1h-0.2C441.1,459.5,440.4,459.3,439.9,458.8z M581.1,298.9L581.1,298.9z"/>
	<path class="st0" d="M581.1,298.9c-0.1,0-0.1,0.1-0.2,0s0-0.2,0.1-0.3l0.2,0.5h-0.1c-0.1,0-0.1-0.1-0.1-0.1S581,298.9,581.1,298.9
		c0.1-0.1,0.1-0.1,0.1-0.2c0-0.1-0.1-0.1-0.1-0.1H581l0.2,0.5c0.1,0,0.1-0.2,0-0.2S581.1,298.9,581.1,298.9z"/>
	<path class="st0" d="M439.9,458.8c0.3,0.2,0.6,0.4,0.9,0.5c1,0.3,2.1,0.1,2.8-0.6l7.6-9.1l28.8-34l44.1-51.8l26.9-31.3l14.5-16.7
		c2.5-2.8,5-5.7,7.5-8.6c1.3-1.4,2.5-2.9,3.9-4.3l2-2.2c0.7-0.7,1.4-1.4,2.1-2.1l0,0c1.8-1,3.6-1.9,5.5-2.7c1.9-0.8,3.8-1.5,5.7-2.2
		c1.9-0.7,3.8-1.5,5.7-2.4c1.8-0.9,3.6-2.1,5.2-3.4c1.6-1.3,3.1-2.8,4.4-4.4c0.7-1.2,0.4-2.7-0.8-3.5c-0.5-0.3-1.2-0.4-1.8-0.3
		c-0.5,0.1-0.9,0.3-1.3,0.7c-0.3,0.4-0.7,0.8-1.1,1.2c-0.8,0.8-1.5,1.5-2.4,2.2c-1.7,1.4-3.5,2.6-5.5,3.5c-4,1.8-8.2,3.1-12.2,4.9
		c-1,0.4-2,0.9-3,1.5c-0.5,0.3-1,0.5-1.4,0.9l-0.6,0.5l-0.6,0.6c-1.6,1.6-3.1,3.2-4.6,4.9c-6,6.7-12,13.5-18,20.4
		c-21,24.2-41.1,47.8-60,69.9l-52.7,62l-0.1,0.2l-0.2-0.1l-44.9-39.4l-4.9-4.3c-0.4-0.4-0.8-0.7-1.2-0.9c-1.3-0.6-2.8,0-3.4,1.4
		c0,0.1-0.1,0.2-0.1,0.3c-0.2,1,0.1,2,0.8,2.6l2.3,2c1.5,1.3,3,2.6,4.4,3.9l15.8,13.9c9.5,8.4,17,15,22.1,19.5l5.8,5.1
		C439.2,458.2,439.9,458.8,439.9,458.8c0,0-0.7-0.6-2-1.7l-5.9-5.1l-22.2-19.4L394,418.8l-4.4-3.8l-2.3-2c-1.2-1.1-1.3-2.9-0.3-4.1
		c0.4-0.5,1-0.8,1.7-1c0.6-0.1,1.1,0,1.6,0.2c0.5,0.3,1,0.6,1.3,1l4.9,4.3l45,39.3h-0.3l52.7-62.1c18.9-22.2,39-45.8,60-70
		c6-6.9,12-13.8,18-20.4c1.5-1.6,3-3.3,4.6-4.9l0.6-0.6l0.7-0.6c0.5-0.3,0.9-0.6,1.4-0.9c1-0.5,2-1,3-1.5c4.1-1.8,8.3-3.1,12.2-4.9
		c2-0.9,3.8-2,5.4-3.4c0.8-0.7,1.6-1.4,2.3-2.2c0.4-0.4,0.7-0.8,1.1-1.2c1.1-1.2,3-1.2,4.2-0.1c1.1,1,1.2,2.6,0.4,3.9
		c-1.3,1.7-2.9,3.2-4.5,4.5c-1.6,1.3-3.4,2.5-5.3,3.5c-1.9,0.9-3.8,1.7-5.7,2.4s-3.8,1.4-5.7,2.2c-1.9,0.7-3.7,1.6-5.4,2.6l0,0
		c-0.7,0.7-1.4,1.4-2,2.1l-2,2.1c-1.3,1.4-2.6,2.9-3.9,4.3l-7.5,8.6c-4.9,5.7-9.8,11.3-14.5,16.7l-26.9,31.3l-44.2,51.7l-28.9,33.9
		c-3.4,3.9-5.9,7-7.7,9c-0.8,0.7-1.9,1-2.9,0.6C440.5,459.2,440.2,459.1,439.9,458.8z"/>
	<path class="st8" d="M676.1,222.4l2.7,23.4c0.7,5.9-2.7,11.5-8.1,13.7L619,280.7l-5.1-8.5l43.5-28.6l-3.9-16.1"/>
	<path class="st0" d="M648.2,208.7c0,0.1,0,0.3,0,0.4c0.1,0.3,0.1,0.6,0.2,1.1c0.2,1,0.5,2.3,0.8,4c0.8,3.4,1.8,8.1,3,13.5l0,0.2
		h0.2l6.2-1.4l17.7-4l5.4-1.3l1.5-0.4c0.2,0,0.3-0.1,0.5-0.2c-0.2,0-0.3,0-0.5,0.1l-1.5,0.3l-5.4,1.1l-17.8,3.9l-6.2,1.4l0.3,0.2
		c-1.3-5.4-2.4-10.1-3.2-13.5c-0.4-1.6-0.7-2.9-1-3.9c-0.1-0.4-0.2-0.8-0.3-1C648.3,209.1,648.3,208.9,648.2,208.7z"/>
</g>
<g id="freepik--character-1--inject-4">
	<rect x="191" y="211" class="st3" width="80.8" height="62.3"/>
	<rect x="197.9" y="259.1" class="st4" width="6.2" height="7"/>
	<rect x="238" y="211.2" class="st5" width="9.2" height="13.3"/>
	<rect x="238" y="259.9" class="st5" width="9.2" height="13.3"/>
	<path class="st0" d="M211.2,273.8c-0.1,0-0.3-13.7-0.3-30.6s0.1-30.6,0.3-30.6s0.3,13.7,0.3,30.6S211.3,273.8,211.2,273.8z"/>
	<path class="st8" d="M256.2,223.5c1.4-1.5,2.9-3,4.4-4.4c1-0.6,5.1-3,5.1-3s7-0.7,7.9-0.1c0.5,0.4,1,0.8,1.4,1.3h1
		c0,0,2.3-0.4,2.7,1.1c0.2,1.2-0.3,2.4-1.4,3.1c-0.2,0.2-0.5,0.3-0.7,0.4l1-0.2c0,0,2,1.5,1.6,2.7c-0.4,0.9-1,1.7-1.7,2.3
		c0.5,0.8,0.5,1.8-0.1,2.6l-1,1.4c0.6,0.8,0.7,1.9,0.3,2.8c-0.7,1.4-5.2,2.8-5.2,2.8s-7.5,0.7-9,0.3c-1.6-0.3-3.2-0.5-4.8-0.6
		L256.2,223.5z"/>
	<path class="st9" d="M275.4,217.3c-0.5,0.2-1.1,0.4-1.6,0.5c-1.4,0.4-2.8,0.6-4.2,0.7c-1.4-0.1-2.8-0.1-4.2,0
		c-0.6,0.1-1.1,0.3-1.6,0.5c0,0,0.4-0.6,1.5-0.8c1.4-0.2,2.8-0.2,4.2-0.1c1.4-0.1,2.8-0.3,4.1-0.6
		C274.2,217.4,274.8,217.3,275.4,217.3z"/>
	<path class="st9" d="M277.9,221.3c0,0-0.1,0.2-0.4,0.4c-0.4,0.2-0.8,0.3-1.2,0.3c-0.6,0.1-1.2,0.1-1.7-0.1c0-0.1,0.8-0.3,1.7-0.4
		l1.2-0.1C277.7,221.3,277.9,221.3,277.9,221.3z"/>
	<path class="st9" d="M277.6,226.4c0.1,0.1-0.4,0.5-1,0.7s-1.2,0.2-1.2,0.1s0.4-0.4,1-0.6S277.6,226.2,277.6,226.4z"/>
	<path class="st9" d="M276.8,230.3c0.1,0.1-0.3,0.7-1.1,0.9s-1.5,0.1-1.4,0s0.6-0.2,1.3-0.4S276.7,230.2,276.8,230.3z"/>
	<polygon class="st8" points="256.8,222.7 243,226.1 242.4,242.1 260.9,235.1 262.3,228.4 	"/>
	<path class="st1" d="M193.5,454.6v22.5l46.2-0.2c-0.3-4.5-25.7-13.6-25.7-13.6l0.5-8.6H193.5z"/>
	<g class="st10">
		<path class="st7" d="M201,461.2c-0.9,0.3-1.4,1.3-1.3,2.2c0.2,0.9,1.2,1.5,2.1,1.3c1-0.3,1.6-1.4,1.3-2.4c-0.3-1-1.4-1.5-2.4-1.1"
			/>
	</g>
	<path class="st0" d="M193.5,477.1v-3.6l44.1,0.5c0,0,2.3,1.4,2.1,2.9L193.5,477.1z"/>
	<path class="st0" d="M214,463.6c0,0.2-1.1,0.4-2.2,1.1s-1.7,1.8-1.9,1.7s0.1-1.4,1.4-2.4S214,463.4,214,463.6z"/>
	<path class="st0" d="M220.1,465.7c0,0.2-0.9,0.6-1.7,1.6s-0.9,2-1.2,2s-0.4-1.3,0.6-2.5S220,465.5,220.1,465.7z"/>
	<path class="st0" d="M222.8,471.5c-0.2,0-0.5-1.1,0-2.4s1.6-1.8,1.7-1.6s-0.5,0.9-1,2S223,471.4,222.8,471.5z"/>
	<path class="st0" d="M213.6,457.3c-0.1,0.2-1.1-0.1-2.4,0s-2.2,0.5-2.4,0.3s0.8-1,2.3-1.1S213.7,457.1,213.6,457.3z"/>
	<path class="st0" d="M213.8,464.7c0.1-0.4,0.2-0.9,0.1-1.4c-0.1-1.3-0.5-2.5-1.2-3.5c-0.5-0.7-1.1-1.4-1.8-1.9
		c-0.4-0.4-1-0.5-1.6-0.3c-0.6,0.3-0.9,0.8-0.9,1.5c0.2,2.4,1.8,4.5,4.1,5.3c2.3,0.7,4.7,0,6.2-1.8c0.4-0.4,0.7-0.9,0.8-1.4
		c0.1-0.3,0.1-0.6,0-0.9c-0.1-0.3-0.3-0.5-0.6-0.6c-0.5-0.1-1-0.1-1.4,0.1c-0.4,0.2-0.7,0.4-1.1,0.6c-1,0.7-1.9,1.5-2.6,2.6
		c-0.3,0.4-0.5,0.8-0.6,1.2c0.9-1.3,2.1-2.5,3.5-3.4c0.6-0.4,1.4-0.9,2.1-0.6c0.3,0.1,0.4,0.4,0.3,0.8c-0.2,0.4-0.4,0.8-0.7,1.1
		c-1.4,1.6-3.6,2.2-5.6,1.6c-2-0.7-3.4-2.5-3.7-4.6c0-0.4,0.2-0.8,0.5-1c0.3-0.1,0.7,0,1,0.2c0.7,0.4,1.3,1,1.8,1.7
		c0.7,1,1.2,2.1,1.4,3.3C213.8,464.2,213.8,464.6,213.8,464.7z"/>
	<polygon class="st1" points="172,455.8 172,463 171.5,476 154.2,476.5 153.6,463 154.1,454.8 	"/>
	<path class="st0" d="M163,475.1c-0.1,0,0.1-4,0.6-8.9s0.8-8.9,0.9-8.9s-0.1,4-0.6,8.9S163.1,475,163,475.1z"/>
	<polygon class="st0" points="171.6,473.9 154.1,474.1 154.1,476.5 171.6,476.4 	"/>
	<path class="st0" d="M154.1,466.4c0.1-0.3,0.3-0.5,0.4-0.7c0.5-0.6,1-1.1,1.5-1.6c0.8-0.7,1.8-1.4,2.8-1.8c3.6-1.7,8-1,10.8,2
		c0.5,0.5,1,1.1,1.3,1.8c0.1,0.2,0.2,0.5,0.3,0.8c-0.5-0.8-1.1-1.6-1.8-2.4c-1.7-1.7-4.1-2.6-6.5-2.6c-2.4,0.1-4.7,1-6.6,2.5
		C154.9,465.5,154.2,466.4,154.1,466.4z"/>
	<path class="st0" d="M211,286.5l-2-3.2l-64.7,3c0,0-1.2,20.1-0.3,27.5c0.3,2.4,1.6,11.5,1.6,11.5l1.6,70.9
		c0.6,5.6,2.1,64.8,2.1,64.8H175l5.2-94.9c0.6-10.6,0.1-26.6,0.7-38.2l8.8,35.8l6.6,22c0,0-1.4,10.9-3,23.9
		c-2.2,18.2-2.1,50.6-2.1,50.6l26.3,0.4c0,0,3.6-33.6,6.5-53.2l2.5-23.3c0-3.9-1.7-13.5-2-15.1L211,286.5z"/>
	<path class="st1" d="M186.6,330c-0.4-0.1-0.8-0.2-1.2-0.4c-0.5-0.2-0.9-0.3-1.4-0.6c-0.6-0.3-1.2-0.6-1.7-0.9
		c-0.7-0.4-1.4-0.8-2-1.2c-0.7-0.5-1.4-1-2.2-1.6c-3.2-2.6-5.9-5.9-7.8-9.6c-0.4-0.8-0.8-1.6-1.1-2.5c-0.3-0.7-0.6-1.5-0.8-2.2
		c-0.2-0.6-0.4-1.2-0.5-1.9c-0.1-0.5-0.2-1-0.3-1.4c-0.1-0.4-0.1-0.8-0.1-1.2c0.1,0,0.3,1.8,1.2,4.5c0.2,0.7,0.5,1.4,0.8,2.2
		s0.7,1.6,1.1,2.4c1.9,3.6,4.5,6.8,7.7,9.4c0.7,0.6,1.4,1.2,2.1,1.6s1.4,0.9,2,1.3C185,329.3,186.6,329.9,186.6,330z"/>
	<path class="st1" d="M211.6,301.9c-0.7,0.2-1.5,0.2-2.2,0.1c-1.8-0.2-3.6-0.8-5.1-1.7c-1.6-0.9-2.9-2.1-4-3.6c-0.5-0.6-0.8-1.3-1-2
		c0.1,0,0.5,0.7,1.3,1.8c1.1,1.4,2.5,2.5,4,3.4c1.5,0.9,3.2,1.5,4.9,1.8C210.7,301.8,211.6,301.8,211.6,301.9z"/>
	<path class="st8" d="M166.2,135.9l-0.5,39.8c-0.1,6.8,1.2,16.7,11.9,16.4l0,0c9.3-1,11.7-9.8,11.8-16.1c0-3,0.1-5.5,0.1-5.8
		c0,0,10.1-0.8,11-10.9c0.4-4.8,0.5-14.9,0.4-24c-0.1-9.8-7.6-17.8-17.4-18.5l-1-0.1C172,116.6,166,125.4,166.2,135.9z"/>
	<path class="st9" d="M189.4,170.1c-4.6-0.4-9.1-2-12.8-4.8c0,0,2.6,7.6,12.7,7.4L189.4,170.1z"/>
	<path class="st0" d="M183.7,139.4c-0.2,0.2-1.4-0.7-3-0.8s-2.9,0.8-3.1,0.6s0.1-0.5,0.7-0.9c0.7-0.5,1.6-0.7,2.5-0.7
		c0.9,0,1.7,0.3,2.4,0.9C183.6,138.9,183.8,139.3,183.7,139.4z"/>
	<path class="st0" d="M183.6,142.9c0,0.7-0.7,1.3-1.4,1.3c-0.7,0-1.3-0.6-1.3-1.3c0,0,0,0,0,0c0-0.7,0.7-1.3,1.4-1.3
		C183,141.6,183.6,142.1,183.6,142.9C183.6,142.9,183.6,142.9,183.6,142.9z"/>
	<path class="st0" d="M187.9,151.1c0.8-0.2,1.7-0.3,2.5-0.3c0.4,0,0.8-0.1,0.9-0.3c0.1-0.4,0-0.8-0.2-1.2c-0.3-1-0.6-2-0.9-3.1
		c-1.3-4.4-2.2-8-2-8s1.4,3.5,2.7,7.8c0.3,1.1,0.6,2.1,0.9,3.1c0.2,0.5,0.3,1,0.1,1.6c-0.1,0.3-0.4,0.5-0.7,0.5c-0.2,0-0.5,0-0.7,0
		C189.6,151.3,188.7,151.3,187.9,151.1z"/>
	<path class="st0" d="M183,133.1c-0.2,0.4-1.5,0.1-3.1,0.2s-2.9,0.4-3.1,0.1c-0.1-0.2,0.2-0.5,0.7-0.8c1.5-0.8,3.2-0.9,4.8-0.2
		C182.8,132.6,183.1,132.9,183,133.1z"/>
	<path class="st0" d="M198.9,136.2c-0.2,0.3-1.5,0-3.1-0.1s-2.9,0.1-3.1-0.2c-0.1-0.2,0.2-0.4,0.7-0.7c1.5-0.6,3.2-0.5,4.7,0.2
		C198.7,135.8,199,136.1,198.9,136.2z"/>
	<path class="st8" d="M166.4,143.3c-0.2-0.1-6.7-2.5-7,4.3s6.7,5.7,6.7,5.5S166.4,143.3,166.4,143.3z"/>
	<path class="st9" d="M164.1,150.5c0,0-0.1,0.1-0.3,0.2c-0.3,0.1-0.6,0.1-0.9,0c-0.9-0.6-1.4-1.6-1.3-2.7c0-0.6,0.1-1.2,0.4-1.7
		c0.1-0.4,0.5-0.8,0.9-0.9c0.3-0.1,0.6,0.1,0.7,0.4c0.1,0.2,0,0.3,0.1,0.3s0.2-0.1,0.1-0.4c0-0.2-0.1-0.3-0.2-0.4
		c-0.2-0.2-0.4-0.2-0.7-0.2c-0.6,0.1-1.1,0.5-1.3,1c-0.3,0.6-0.5,1.2-0.5,1.9c-0.1,1.2,0.5,2.4,1.6,3c0.4,0.1,0.8,0.1,1.1-0.1
		C164.1,150.7,164.1,150.5,164.1,150.5z"/>
	<path class="st0" d="M186.3,155.9c0.1-0.2-1.3-0.6-2.2-1.8c-0.4-0.6-0.7-1.2-1-1.8c-0.2-0.5-0.4-0.8-0.4-0.8s-0.1,0.4,0.1,0.9
		c0.1,0.7,0.4,1.4,0.9,2c0.5,0.6,1.1,1.1,1.8,1.3C185.9,155.9,186.2,155.9,186.3,155.9z"/>
	<path class="st0" d="M199,140c-0.2,0.2-1.4-0.7-3-0.8s-2.9,0.8-3.1,0.6s0.1-0.5,0.7-0.9c0.7-0.5,1.6-0.7,2.5-0.7
		c0.9,0,1.7,0.3,2.4,0.9C198.9,139.6,199.1,140,199,140z"/>
	<path class="st0" d="M198.7,143.4c0,0.7-0.7,1.3-1.4,1.3c-0.7,0-1.3-0.6-1.3-1.3c0,0,0,0,0,0c0-0.7,0.7-1.3,1.4-1.3
		C198.1,142,198.7,142.6,198.7,143.4C198.7,143.3,198.7,143.4,198.7,143.4z"/>
	<path class="st0" d="M207.8,122c-1.4-2.3-4.3-3.2-6.8-2.1c0.8-4-1.9-7.9-5.9-8.7c-2.5-0.5-5.2,0.4-6.9,2.3c-0.2-0.8-0.7-1.6-1.5-2
		c-0.8-0.4-1.6-0.7-2.5-0.7c-4.2-0.5-8.3,1.3-10.8,4.7c-4.1-0.5-8.1,1-10.9,4c-3.2,3.6-3.8,11.9-0.3,19l0.8,4.5c1-0.1,2,0.1,2.8,0.7
		c0.9,0.8,1.3,2.4,2.9,1.8c0.8-0.3,1.5-2,1.8-2.8c1.7-5.3,2.3-11,1.7-16.6c1.1-1.2,2.4-2.1,3.9-2.8l-0.1,0.1c2.8-1,6-1.9,8.6-0.6
		c2.1,1,3.3,3.2,4.8,4.9c2.9,3.2,6.9,5.1,11.2,5.2c0.1,2.8-0.1,6.8,0.1,9.6l2.4-4.5l0,0c0.2-0.3,0.4-0.7,0.5-1l0.1-0.1l0,0l0,0
		c0.5-0.6,1-1.2,1.5-1.8c1.4-1.7,1.8-4,1-6.1C208.4,127.3,209.1,124.4,207.8,122z"/>
	<polygon class="st0" points="204.6,135.2 204.6,135.2 204.6,135.2 	"/>
	<path class="st1" d="M203.7,122.1c0,0,0,0.1,0.1,0.2c0,0.1,0.1,0.3,0.1,0.4c0,0.6-0.1,1.1-0.4,1.6c-0.2,0.3-0.5,0.6-0.8,0.9
		c-0.4,0.3-0.8,0.5-1.3,0.5c-1.1,0.2-2.2-0.2-2.9-1.1l0.2-0.1c0.3,0.4,0.5,0.8,0.5,1.3c0,0.7-0.3,1.3-0.8,1.7
		c-0.5,0.4-1,0.6-1.6,0.7c-1,0.1-2-0.2-2.8-0.8c-0.5-0.4-1.1-0.8-1.5-1.3c-0.2-0.2-0.3-0.4-0.5-0.6c0.2,0.1,0.4,0.3,0.6,0.5
		c0.5,0.4,1,0.9,1.5,1.2c0.8,0.5,1.8,0.8,2.7,0.7c0.6-0.1,1.1-0.3,1.5-0.7c0.4-0.4,0.7-1,0.7-1.6c0-0.4-0.1-0.9-0.4-1.2l0.2-0.2
		c0.6,0.8,1.7,1.2,2.6,1c0.8-0.1,1.5-0.6,1.9-1.3c0.3-0.5,0.4-1,0.4-1.5C203.7,122.3,203.7,122.1,203.7,122.1z"/>
	<path class="st1" d="M195.1,114.6l0.1,0.1c0.1,0.1,0.3,0.2,0.4,0.3c0.4,0.4,0.8,0.8,1,1.3c0.3,0.8,0.2,1.7-0.2,2.5
		c-0.3,0.4-0.7,0.7-1.2,0.9c-0.6,0.1-1.1,0-1.6-0.3c-0.1-0.1-0.3-0.2-0.4-0.4l0.2-0.1c0.2,0.5,0.2,1.1-0.1,1.5c-0.2,0.4-0.6,0.8-1,1
		c-0.7,0.3-1.6,0.3-2.3,0c-0.5-0.2-0.9-0.6-1.3-1c-0.1-0.1-0.2-0.3-0.3-0.5c0,0,0.1,0.2,0.4,0.4c0.4,0.4,0.8,0.7,1.3,0.9
		c0.7,0.3,1.5,0.3,2.2,0c0.4-0.2,0.7-0.5,0.9-0.9c0.2-0.4,0.2-0.9,0.1-1.4l-0.4-0.8l0.6,0.7c0.1,0.1,0.2,0.2,0.3,0.3
		c0.4,0.3,0.9,0.4,1.4,0.3c0.5-0.1,0.9-0.4,1.1-0.8c0.5-0.7,0.6-1.5,0.3-2.3c-0.2-0.5-0.5-1-0.9-1.3
		C195.3,114.7,195.1,114.6,195.1,114.6z"/>
	<path class="st1" d="M137.5,199.8c0,0-7.7,43.8-7.3,47.9s2.4,10.6,7.1,11.7c2.9,0.7,6,0.7,8.9,0l-5.6-53.8L137.5,199.8z"/>
	<path class="st1" d="M210.7,267.3l-1.4-19.9l0.4-26.8l-5.4-36c-0.2-1-0.9-1.9-1.9-2.3l-8.4-3.3l-1.2-4.8c0,0-7.4-5.5-19.7-5.6
		c-3.8-0.1-9.1,1.4-12.1,3.8l-0.8,4.8c0,0-9.2,6.6-11.3,8.5c-8.5,8.1-10.3,11.4-11.3,14.1s5.9,66.2,5.9,66.2l-0.9,11.4l-1.4,4.2
		c-0.7,2.9,0,7.7,3,7.9l67.1-0.3C214.2,289.3,211.2,270.2,210.7,267.3z"/>
	<path class="st1" d="M250.7,222.7l-25.2,2.3c-1.3-3.6-3.6-1.4-3.6-1.4s-7.6-16.9-10-25.1c-2.7-9.2-5.6-12.9-6.9-14.6
		c-0.9-1.2-3.8-1.9-3.8-1.9c-4.6-1-9.5,0.4-12.8,3.9c-7,7.4-4.4,27.8-4.4,27.8l9.8,14.3c0.7,1.9,5.4,10,11,16.7
		c3.1,3.6,7.9,5.3,12.6,4.2l35.7-7.7C254,234.9,253.2,228.5,250.7,222.7z"/>
	<path class="st0" d="M193.9,179c-0.1,0-0.2,0-0.3-0.1l-1-0.2c-0.8-0.2-2-0.5-3.6-0.8c-4-0.7-8-1.2-12-1.5c-4-0.3-8-0.3-12.1,0
		c-1.2,0.1-2.4,0.3-3.6,0.5l-1,0.2l-0.3,0.1c0.1,0,0.2-0.1,0.3-0.1l1-0.2c1.2-0.3,2.4-0.4,3.6-0.6c4-0.4,8.1-0.4,12.1-0.1
		c4,0.2,8,0.8,12,1.6c1.5,0.3,2.7,0.6,3.6,0.9l1,0.3C193.7,178.9,193.8,178.9,193.9,179z"/>
	<g class="st2">
		<path d="M160.3,177.1c10.1,1.8,20.4,0,31.2,1.3C181.1,176.3,170.3,175.3,160.3,177.1"/>
	</g>
	<g class="st2">
		<path d="M142.5,259.5c-5.7-13.4-4.6-28-3.8-42.5L142.5,259.5z"/>
	</g>
	<path class="st0" d="M138.2,209.3v0.2c0,0.1,0,0.3,0.1,0.5c0,0.4,0.1,1,0.2,1.8c0.1,1.6,0.3,3.8,0.6,6.5c0.5,5.4,1.1,13,1.9,21.3
		s1.6,15.9,2.2,21.3c0.3,2.7,0.6,4.9,0.8,6.4l0.2,1.8c0,0.2,0,0.3,0.1,0.5s0,0.1,0,0.2s0-0.1,0-0.2s0-0.3-0.1-0.5
		c-0.1-0.4-0.2-1-0.3-1.8c-0.2-1.5-0.5-3.7-0.9-6.4c-0.7-5.4-1.5-13-2.3-21.3s-1.4-15.9-1.8-21.3c-0.2-2.7-0.4-4.9-0.5-6.5
		c0-0.8-0.1-1.3-0.1-1.8c0-0.2,0-0.3,0-0.5S138.2,209.3,138.2,209.3z"/>
	<path class="st0" d="M181.4,202.2H181h-1.2c-1,0-2.5,0-4.4,0c-3.7,0.1-8.8,0.4-14.5,1s-10.7,1.6-14.3,2.4c-1.8,0.4-3.3,0.7-4.3,1
		l-1.2,0.3c-0.1,0-0.3,0.1-0.4,0.1l0.4-0.1l1.1-0.3c1-0.3,2.5-0.6,4.3-1.1c9.5-2.2,19.1-3.3,28.8-3.4c1.9,0,3.4,0,4.4,0h1.2
		C181.1,202,181.3,202.1,181.4,202.2z"/>
	<path class="st0" d="M156.5,216.4c-0.1,0,0.1-6.1,0.3-13.6s0.5-13.5,0.6-13.5s-0.1,6.1-0.3,13.6S156.6,216.4,156.5,216.4z"/>
	<g class="st2">
		<path d="M141.8,207c4.1-0.2,8.2-0.8,12.2-1.6c-0.5,1.8-0.7,3.6-0.7,5.4c1.3-1.4,2.2-3.1,2.7-5c0.3,2,1.4,3.8,3.1,5
			c0.4-1.8,0.5-3.7,0.3-5.6c6.1-0.7,12.1-1.7,18.1-3c-12.1-0.3-24.2,1.2-35.9,4.5"/>
	</g>
	<g class="st2">
		<path d="M190.4,220.6c0,0,6.7,33,19.2,32.5l0.2-4.9C202.9,245.2,196.6,233.1,190.4,220.6z"/>
	</g>
	<path class="st0" d="M247.3,242.9c-0.2,0.1-0.5,0.1-0.7,0.2l-2.1,0.5l-7.9,1.6l-11.7,2.3c-2.2,0.4-4.5,1-6.9,1.4
		c-1.9,0.4-3.8,0.4-5.7,0.2c-0.7,0-1.4-0.2-2-0.5c-0.1-0.1-0.3-0.2-0.3-0.3l0.1,0.1c-1.3-0.4-2.4-1.1-3.4-2
		c-0.9-0.8-1.8-1.7-2.6-2.7c-1.5-1.8-2.8-3.7-4.1-5.7c-2.4-3.8-4.4-7.3-5.9-10.3s-2.8-5.4-3.6-7.1c-0.4-0.8-0.7-1.5-0.9-2
		c-0.1-0.2-0.2-0.5-0.3-0.7c0.2,0.2,0.3,0.4,0.4,0.7c0.2,0.5,0.6,1.1,1,1.9c0.9,1.7,2.1,4.1,3.7,7.1s3.6,6.5,6,10.2
		c1.3,2,2.6,3.8,4.1,5.6c0.8,0.9,1.6,1.8,2.6,2.6c0.9,0.9,2,1.5,3.2,1.9l0.1,0.1c0.1,0,0.1,0.1,0.2,0.1c0.6,0.3,1.1,0.4,1.8,0.5
		c0.6,0.1,1.3,0.1,1.9,0.1c1.2,0,2.5-0.1,3.7-0.3c2.4-0.4,4.7-1,6.9-1.4l11.8-2.2l7.9-1.5l2.2-0.4
		C246.8,242.9,247.1,242.9,247.3,242.9z"/>
	<path class="st0" d="M250.7,222.7c-0.2,0.1-0.3,0.1-0.5,0.1l-1.4,0.2l-5.2,0.5l-18.1,1.7h-0.2l-0.1-0.2c-0.3-0.7-0.7-1.3-1.3-1.8
		c-0.6-0.4-1.4-0.2-1.8,0.4l-0.3,0.3l-0.2-0.4c-0.7-1.7-1.4-3.5-2.2-5.3c-3.8-9.2-7-17.5-9.4-23.6c-1.2-3-2.2-5.4-2.9-7.1l-0.8-1.9
		c-0.1-0.2-0.2-0.4-0.3-0.7c0.1,0.2,0.3,0.4,0.4,0.6c0.2,0.4,0.5,1,0.9,1.9c0.8,1.6,1.8,4.1,3.1,7.1c2.5,6,5.8,14.4,9.5,23.5
		c0.8,1.8,1.5,3.6,2.2,5.3l-0.4-0.1c0.3-0.4,0.7-0.6,1.1-0.8c0.5-0.1,1,0,1.4,0.2c0.7,0.5,1.2,1.2,1.5,2l-0.2-0.1l18.1-1.6l5.2-0.4
		l1.4-0.1L250.7,222.7z"/>
	<path class="st0" d="M199.9,185.6c-1.9,0-3.7,0.1-5.5,0.4c-2,0.4-3.8,1.2-5.4,2.4c-1.9,1.6-3.4,3.6-4.2,5.9
		c-0.9,2.3-1.4,4.7-1.4,7.2c0,2,0.1,4,0.3,6c0.2,1.7,0.4,3.1,0.6,4.1c0.1,0.5,0.2,1,0.2,1.5c-0.2-0.5-0.3-1-0.4-1.5
		c-0.2-0.9-0.5-2.3-0.7-4c-0.3-2-0.5-4.1-0.4-6.1c0-2.5,0.5-5,1.4-7.4c0.9-2.4,2.4-4.4,4.4-6c1.7-1.2,3.6-2.1,5.6-2.4
		c1.4-0.3,2.7-0.3,4.1-0.3c0.5,0,0.9,0.1,1.1,0.1C199.7,185.5,199.8,185.5,199.9,185.6z"/>
</g>
<rect x="256.2" y="312" class="st3" width="158.7" height="34"/>
<polygon class="st3" points="414.9,346 442.7,320.6 404.1,318.2 "/>
</svg>
